<svg width="1440" height="2198" viewBox="0 0 1440 2198" fill="none" xmlns="http://www.w3.org/2000/svg">
<rect width="1440" height="2198" fill="white"/>
<rect width="1440" height="152" fill="#110D59"/>
<path d="M84.737 83.39C86.8863 83.39 88.6803 82.8527 90.119 81.778C91.5663 80.6947 92.5803 79.2387 93.161 77.41L90.002 76.539C89.638 77.7523 89.0183 78.7057 88.143 79.399C87.2677 80.0923 86.1323 80.439 84.737 80.439C82.8563 80.439 81.4393 79.8193 80.486 78.58C79.5413 77.332 79.069 75.6853 79.069 73.64C79.0777 71.5947 79.5543 69.9523 80.499 68.713C81.4437 67.465 82.8563 66.841 84.737 66.841C86.1323 66.841 87.2677 67.1877 88.143 67.881C89.0183 68.5743 89.638 69.5277 90.002 70.741L93.161 69.87C92.5803 68.0327 91.5663 66.5767 90.119 65.502C88.6803 64.4273 86.8863 63.89 84.737 63.89C82.8737 63.89 81.2703 64.3017 79.927 65.125C78.5923 65.9397 77.5653 67.0793 76.846 68.544C76.1353 70 75.78 71.6987 75.78 73.64C75.78 75.5727 76.1353 77.2713 76.846 78.736C77.5653 80.2007 78.5923 81.3447 79.927 82.168C81.2703 82.9827 82.8737 83.39 84.737 83.39ZM102.736 83.39C104.14 83.39 105.367 83.078 106.415 82.454C107.464 81.8213 108.279 80.9503 108.859 79.841C109.449 78.723 109.743 77.436 109.743 75.98C109.743 74.5327 109.453 73.2543 108.872 72.145C108.292 71.027 107.477 70.1517 106.428 69.519C105.38 68.8863 104.149 68.57 102.736 68.57C101.358 68.57 100.145 68.882 99.0963 69.506C98.0476 70.13 97.2286 70.9967 96.6393 72.106C96.05 73.2153 95.7553 74.5067 95.7553 75.98C95.7553 77.4273 96.0413 78.71 96.6133 79.828C97.194 80.9373 98.0086 81.8083 99.0573 82.441C100.106 83.0737 101.332 83.39 102.736 83.39ZM102.736 80.452C101.532 80.452 100.617 80.049 99.9933 79.243C99.378 78.4283 99.0703 77.3407 99.0703 75.98C99.0703 74.654 99.365 73.5793 99.9543 72.756C100.552 71.924 101.48 71.508 102.736 71.508C103.967 71.508 104.89 71.9153 105.505 72.73C106.121 73.536 106.428 74.6193 106.428 75.98C106.428 77.2973 106.121 78.372 105.505 79.204C104.899 80.036 103.976 80.452 102.736 80.452ZM113.388 83H116.521V63.89H113.388V83ZM127.136 83.39C128.54 83.39 129.766 83.078 130.815 82.454C131.863 81.8213 132.678 80.9503 133.259 79.841C133.848 78.723 134.143 77.436 134.143 75.98C134.143 74.5327 133.852 73.2543 133.272 72.145C132.691 71.027 131.876 70.1517 130.828 69.519C129.779 68.8863 128.548 68.57 127.136 68.57C125.758 68.57 124.544 68.882 123.496 69.506C122.447 70.13 121.628 70.9967 121.039 72.106C120.449 73.2153 120.155 74.5067 120.155 75.98C120.155 77.4273 120.441 78.71 121.013 79.828C121.593 80.9373 122.408 81.8083 123.457 82.441C124.505 83.0737 125.732 83.39 127.136 83.39ZM127.136 80.452C125.931 80.452 125.017 80.049 124.393 79.243C123.777 78.4283 123.47 77.3407 123.47 75.98C123.47 74.654 123.764 73.5793 124.354 72.756C124.952 71.924 125.879 71.508 127.136 71.508C128.366 71.508 129.289 71.9153 129.905 72.73C130.52 73.536 130.828 74.6193 130.828 75.98C130.828 77.2973 130.52 78.372 129.905 79.204C129.298 80.036 128.375 80.452 127.136 80.452ZM137.527 83H140.673V75.863C140.673 75.0483 140.82 74.3247 141.115 73.692C141.418 73.0593 141.891 72.5697 142.532 72.223C142.965 71.9717 143.451 71.8243 143.988 71.781C144.525 71.729 145.006 71.7637 145.431 71.885V68.96C144.798 68.8647 144.148 68.8777 143.481 68.999C142.814 69.1117 142.22 69.3457 141.7 69.701C141.405 69.883 141.141 70.104 140.907 70.364C140.673 70.6153 140.469 70.897 140.296 71.209V68.96H137.527V83ZM161.086 83.39C162.368 83.39 163.569 83.1733 164.687 82.74C165.805 82.3067 166.706 81.6567 167.391 80.79C168.084 79.9233 168.431 78.8443 168.431 77.553C168.431 76.6257 168.257 75.8587 167.911 75.252C167.573 74.6367 167.135 74.1427 166.598 73.77C166.069 73.3973 165.519 73.107 164.947 72.899C164.383 72.691 163.872 72.5263 163.413 72.405L160.059 71.469C159.643 71.3563 159.227 71.2177 158.811 71.053C158.395 70.8797 158.048 70.65 157.771 70.364C157.493 70.0693 157.355 69.6923 157.355 69.233C157.355 68.7477 157.515 68.323 157.836 67.959C158.165 67.595 158.594 67.3133 159.123 67.114C159.66 66.9147 160.241 66.8237 160.865 66.841C161.827 66.867 162.693 67.1487 163.465 67.686C164.236 68.2233 164.721 68.986 164.921 69.974L168.288 69.389C167.872 67.6557 167.018 66.3167 165.727 65.372C164.435 64.4187 162.828 63.9333 160.904 63.916C159.638 63.9073 158.486 64.111 157.446 64.527C156.414 64.9343 155.591 65.5453 154.976 66.36C154.369 67.1747 154.066 68.1843 154.066 69.389C154.066 70.2123 154.2 70.9057 154.469 71.469C154.746 72.0237 155.097 72.4787 155.522 72.834C155.955 73.1893 156.41 73.471 156.887 73.679C157.372 73.887 157.823 74.0517 158.239 74.173L163.075 75.603C164.461 76.019 165.155 76.7383 165.155 77.761C165.155 78.333 164.968 78.8227 164.596 79.23C164.232 79.6287 163.755 79.932 163.166 80.14C162.576 80.348 161.948 80.452 161.281 80.452C160.154 80.452 159.157 80.1487 158.291 79.542C157.433 78.9353 156.865 78.0773 156.588 76.968L153.338 77.462C153.537 78.684 153.988 79.7413 154.69 80.634C155.4 81.518 156.302 82.1983 157.394 82.675C158.494 83.1517 159.725 83.39 161.086 83.39ZM179.994 83V80.374C179.118 80.504 178.338 80.5387 177.654 80.478C176.969 80.4173 176.471 80.127 176.159 79.607C175.994 79.3383 175.903 78.9917 175.886 78.567C175.877 78.1337 175.873 77.6397 175.873 77.085V71.417H179.994V68.96H175.873V65.06H172.753V68.96H170.205V71.417H172.753V77.267C172.753 78.073 172.761 78.7923 172.779 79.425C172.796 80.049 172.965 80.6643 173.286 81.271C173.65 81.9383 174.183 82.428 174.885 82.74C175.587 83.0433 176.38 83.2037 177.264 83.221C178.156 83.247 179.066 83.1733 179.994 83ZM184.998 89.24H187.936L195.762 68.96H192.629L188.82 79.009L184.894 68.96H181.631L187.312 82.896L184.998 89.24ZM198.481 83H201.614V63.89H198.481V83ZM212.411 83.39C213.763 83.39 214.998 83.0433 216.116 82.35C217.242 81.648 218.074 80.66 218.612 79.386L215.518 78.45C214.894 79.7847 213.797 80.452 212.229 80.452C211.163 80.452 210.322 80.1443 209.707 79.529C209.091 78.905 208.723 78.0123 208.602 76.851H218.768C218.889 75.161 218.703 73.6963 218.209 72.457C217.715 71.2177 216.956 70.26 215.934 69.584C214.92 68.908 213.685 68.57 212.229 68.57C210.851 68.57 209.637 68.882 208.589 69.506C207.54 70.1213 206.721 70.9967 206.132 72.132C205.542 73.2673 205.248 74.602 205.248 76.136C205.248 77.5573 205.547 78.814 206.145 79.906C206.751 80.998 207.592 81.8517 208.667 82.467C209.741 83.0823 210.989 83.39 212.411 83.39ZM212.359 71.313C213.329 71.313 214.075 71.5687 214.595 72.08C215.123 72.5827 215.457 73.3843 215.596 74.485H208.68C209.052 72.3703 210.279 71.313 212.359 71.313Z" fill="white"/>
<rect x="75" y="268" width="202" height="150" rx="8" fill="#2B283D"/>
<rect x="293" y="268" width="201" height="150" rx="8" fill="#4C4958"/>
<rect x="510" y="268" width="202" height="150" rx="8" fill="#55555F"/>
<rect x="728.5" y="268.5" width="201" height="149" rx="7.5" fill="#7D7A89" stroke="black"/>
<rect x="946" y="268" width="201" height="150" rx="8" fill="#D9D9D9"/>
<rect x="1163" y="268" width="202" height="150" rx="8" fill="white"/>
<rect width="1290" height="67" transform="translate(75 632)" fill="white"/>
<rect x="75" y="632" width="202" height="67" rx="8" fill="#110D59"/>
<rect x="293" y="632" width="201" height="67" rx="8" fill="#28246F"/>
<rect x="510" y="632" width="202" height="67" rx="8" fill="#44408A"/>
<rect x="728" y="632" width="202" height="67" rx="8" fill="#7E7BB3"/>
<rect x="946" y="632" width="201" height="67" rx="8" fill="#B4B1E6"/>
<rect x="1163" y="632" width="202" height="67" rx="8" fill="#DAD9F5"/>
<rect x="75" y="723" width="202" height="67" rx="8" fill="#08437A"/>
<rect x="293" y="723" width="201" height="67" rx="8" fill="#0B5FAE"/>
<rect x="510" y="723" width="202" height="67" rx="8" fill="#0E77D9"/>
<rect x="728" y="723" width="202" height="67" rx="8" fill="#3F9CF2"/>
<rect x="946" y="723" width="201" height="67" rx="8" fill="#A3D1FC"/>
<rect x="1163" y="723" width="202" height="67" rx="8" fill="#CFE8FF"/>
<rect x="75" y="814" width="202" height="67" rx="8" fill="#005F84"/>
<rect x="293" y="814" width="201" height="67" rx="8" fill="#2086AD"/>
<rect x="510" y="814" width="202" height="67" rx="8" fill="#3FA0C6"/>
<rect x="728" y="814" width="202" height="67" rx="8" fill="#6AB8D6"/>
<rect x="946" y="814" width="201" height="67" rx="8" fill="#9FD1E4"/>
<rect x="1163" y="814" width="202" height="67" rx="8" fill="#D5ECF5"/>
<rect x="75" y="905" width="202" height="67" rx="8" fill="#039267"/>
<rect x="293" y="905" width="201" height="67" rx="8" fill="#1AC491"/>
<rect x="510" y="905" width="202" height="67" rx="8" fill="#55E7BB"/>
<rect x="728" y="905" width="202" height="67" rx="8" fill="#95F4D8"/>
<rect x="946" y="905" width="201" height="67" rx="8" fill="#C7F8E9"/>
<rect x="1163" y="905" width="202" height="67" rx="8" fill="#D9FCF1"/>
<rect x="75" y="996" width="202" height="67" rx="8" fill="#49950D"/>
<rect x="293" y="996" width="201" height="67" rx="8" fill="#5FB918"/>
<rect x="510" y="996" width="202" height="67" rx="8" fill="#76DE24"/>
<rect x="728" y="996" width="202" height="67" rx="8" fill="#9AEC59"/>
<rect x="946" y="996" width="201" height="67" rx="8" fill="#C2F799"/>
<rect x="1163" y="996" width="202" height="67" rx="8" fill="#DDFBC5"/>
<rect x="75" y="1087" width="202" height="67" rx="8" fill="#D39405"/>
<rect x="293" y="1087" width="201" height="67" rx="8" fill="#ECAA18"/>
<rect x="510" y="1087" width="202" height="67" rx="8" fill="#FFBC26"/>
<rect x="728" y="1087" width="202" height="67" rx="8" fill="#FFCC5A"/>
<rect x="946" y="1087" width="201" height="67" rx="8" fill="#FDE2A1"/>
<rect x="1163" y="1087" width="202" height="67" rx="8" fill="#FCE9C0"/>
<rect x="75" y="1178" width="202" height="67" rx="8" fill="#DF6F0B"/>
<rect x="293" y="1178" width="201" height="67" rx="8" fill="#F18524"/>
<rect x="510" y="1178" width="202" height="67" rx="8" fill="#FEB371"/>
<rect x="728" y="1178" width="202" height="67" rx="8" fill="#F9BC87"/>
<rect x="946" y="1178" width="201" height="67" rx="8" fill="#FDD5B2"/>
<rect x="1163" y="1178" width="202" height="67" rx="8" fill="#FFECDC"/>
<rect x="75" y="1269" width="202" height="67" rx="8" fill="#980808"/>
<rect x="293" y="1269" width="201" height="67" rx="8" fill="#C91616"/>
<rect x="510" y="1269" width="202" height="67" rx="8" fill="#F14D4D"/>
<rect x="728" y="1269" width="202" height="67" rx="8" fill="#FF7878"/>
<rect x="946" y="1269" width="201" height="67" rx="8" fill="#FBB4B4"/>
<rect x="1163" y="1269" width="202" height="67" rx="8" fill="#FCDBDB"/>
<rect x="75" y="1360" width="202" height="67" rx="8" fill="#930C6D"/>
<rect x="293" y="1360" width="201" height="67" rx="8" fill="#C11390"/>
<rect x="510" y="1360" width="202" height="67" rx="8" fill="#E924B1"/>
<rect x="728" y="1360" width="202" height="67" rx="8" fill="#F173CE"/>
<rect x="946" y="1360" width="201" height="67" rx="8" fill="#F8B0E4"/>
<rect x="1163" y="1360" width="202" height="67" rx="8" fill="#FED5F2"/>
<rect x="75" y="1451" width="202" height="67" rx="8" fill="#800C93"/>
<rect x="293" y="1451" width="201" height="67" rx="8" fill="#AF20C7"/>
<rect x="510" y="1451" width="202" height="67" rx="8" fill="#C750DB"/>
<rect x="728" y="1451" width="202" height="67" rx="8" fill="#D97DE9"/>
<rect x="946" y="1451" width="201" height="67" rx="8" fill="#E3A7ED"/>
<rect x="1163" y="1451" width="202" height="67" rx="8" fill="#F3CEFA"/>
<path d="M81.132 224H83.268V208.748H89.16V206.72H75.24V208.748H81.132V224ZM95.2448 224.36C96.5008 224.36 97.6328 224.048 98.6407 223.424C99.6488 222.792 100.409 221.904 100.921 220.76L98.8687 220.052C98.1247 221.572 96.8847 222.332 95.1487 222.332C93.9567 222.332 93.0207 221.968 92.3407 221.24C91.6687 220.504 91.2887 219.464 91.2007 218.12H101.137C101.201 216.584 101.001 215.26 100.537 214.148C100.081 213.036 99.3928 212.18 98.4727 211.58C97.5607 210.98 96.4527 210.68 95.1487 210.68C93.8927 210.68 92.7967 210.964 91.8607 211.532C90.9247 212.092 90.1967 212.892 89.6767 213.932C89.1647 214.964 88.9087 216.188 88.9087 217.604C88.9087 218.956 89.1687 220.14 89.6887 221.156C90.2167 222.164 90.9567 222.952 91.9087 223.52C92.8607 224.08 93.9727 224.36 95.2448 224.36ZM95.2207 212.6C97.4207 212.6 98.6528 213.868 98.9167 216.404H91.2367C91.3887 215.172 91.8007 214.232 92.4727 213.584C93.1447 212.928 94.0607 212.6 95.2207 212.6ZM102.38 224H104.936L108.584 219.104L112.208 224H114.764L109.796 217.448L114.644 211.04H112.1L108.584 215.792L105.032 211.04H102.488L107.336 217.448L102.38 224ZM124.403 224V222.164C123.515 222.3 122.755 222.324 122.123 222.236C121.499 222.148 121.043 221.848 120.755 221.336C120.603 221.064 120.519 220.744 120.503 220.376C120.495 220 120.491 219.544 120.491 219.008V212.804H124.403V211.04H120.491V207.44H118.355V211.04H115.727V212.804H118.355V219.104C118.355 219.776 118.363 220.376 118.379 220.904C118.403 221.424 118.543 221.936 118.799 222.44C119.103 223.024 119.547 223.456 120.131 223.736C120.715 224.008 121.379 224.156 122.123 224.18C122.875 224.212 123.635 224.152 124.403 224ZM139.903 224.36C141.903 224.36 143.547 223.852 144.835 222.836C146.131 221.812 147.023 220.444 147.511 218.732L145.339 218.156C144.987 219.436 144.355 220.452 143.443 221.204C142.539 221.948 141.359 222.32 139.903 222.32C138.615 222.32 137.539 222.028 136.675 221.444C135.811 220.86 135.163 220.044 134.731 218.996C134.299 217.948 134.087 216.736 134.095 215.36C134.103 213.976 134.323 212.764 134.755 211.724C135.187 210.676 135.831 209.86 136.687 209.276C137.543 208.692 138.615 208.4 139.903 208.4C141.359 208.4 142.539 208.772 143.443 209.516C144.355 210.26 144.987 211.276 145.339 212.564L147.511 211.988C147.023 210.268 146.131 208.9 144.835 207.884C143.547 206.868 141.903 206.36 139.903 206.36C138.183 206.36 136.719 206.74 135.511 207.5C134.311 208.26 133.399 209.316 132.775 210.668C132.151 212.02 131.839 213.584 131.839 215.36C131.839 217.136 132.151 218.7 132.775 220.052C133.399 221.404 134.311 222.46 135.511 223.22C136.719 223.98 138.183 224.36 139.903 224.36ZM156.142 224.36C157.43 224.36 158.538 224.072 159.466 223.496C160.402 222.92 161.122 222.116 161.626 221.084C162.138 220.052 162.394 218.86 162.394 217.508C162.394 216.172 162.142 214.992 161.638 213.968C161.142 212.936 160.426 212.132 159.49 211.556C158.554 210.972 157.438 210.68 156.142 210.68C154.878 210.68 153.778 210.968 152.842 211.544C151.906 212.112 151.182 212.908 150.67 213.932C150.158 214.956 149.902 216.148 149.902 217.508C149.902 218.844 150.15 220.028 150.646 221.06C151.15 222.092 151.87 222.9 152.806 223.484C153.742 224.068 154.854 224.36 156.142 224.36ZM156.142 222.332C154.838 222.332 153.85 221.896 153.178 221.024C152.506 220.144 152.17 218.972 152.17 217.508C152.17 216.092 152.494 214.94 153.142 214.052C153.79 213.156 154.79 212.708 156.142 212.708C157.47 212.708 158.466 213.144 159.13 214.016C159.794 214.888 160.126 216.052 160.126 217.508C160.126 218.932 159.794 220.092 159.13 220.988C158.474 221.884 157.478 222.332 156.142 222.332ZM165.757 224H167.893V206.36H165.757V224ZM177.493 224.36C178.781 224.36 179.889 224.072 180.817 223.496C181.753 222.92 182.473 222.116 182.977 221.084C183.489 220.052 183.745 218.86 183.745 217.508C183.745 216.172 183.493 214.992 182.989 213.968C182.493 212.936 181.777 212.132 180.841 211.556C179.905 210.972 178.789 210.68 177.493 210.68C176.229 210.68 175.129 210.968 174.193 211.544C173.257 212.112 172.533 212.908 172.021 213.932C171.509 214.956 171.253 216.148 171.253 217.508C171.253 218.844 171.501 220.028 171.997 221.06C172.501 222.092 173.221 222.9 174.157 223.484C175.093 224.068 176.205 224.36 177.493 224.36ZM177.493 222.332C176.189 222.332 175.201 221.896 174.529 221.024C173.857 220.144 173.521 218.972 173.521 217.508C173.521 216.092 173.845 214.94 174.493 214.052C175.141 213.156 176.141 212.708 177.493 212.708C178.821 212.708 179.817 213.144 180.481 214.016C181.145 214.888 181.477 216.052 181.477 217.508C181.477 218.932 181.145 220.092 180.481 220.988C179.825 221.884 178.829 222.332 177.493 222.332ZM186.867 224H189.015V217.496C189.015 216.728 189.119 215.988 189.327 215.276C189.535 214.564 189.955 213.984 190.587 213.536C191.035 213.208 191.527 213.016 192.063 212.96C192.607 212.904 193.103 212.932 193.551 213.044V211.04C192.975 210.912 192.343 210.912 191.655 211.04C190.967 211.168 190.375 211.432 189.879 211.832C189.447 212.136 189.079 212.556 188.775 213.092V211.04H186.867V224Z" fill="black"/>
<path d="M76.68 584H84.012C85.596 584 86.848 583.556 87.768 582.668C88.688 581.772 89.148 580.568 89.148 579.056C89.148 578.096 88.908 577.252 88.428 576.524C87.948 575.788 87.268 575.232 86.388 574.856C86.988 574.504 87.46 574.016 87.804 573.392C88.148 572.768 88.32 572.06 88.32 571.268C88.32 570.468 88.124 569.724 87.732 569.036C87.348 568.34 86.788 567.78 86.052 567.356C85.324 566.932 84.444 566.72 83.412 566.72H76.68V584ZM78.84 573.932V568.736H83.388C84.196 568.736 84.852 568.972 85.356 569.444C85.868 569.916 86.124 570.524 86.124 571.268C86.124 572.076 85.856 572.724 85.32 573.212C84.792 573.692 84.148 573.932 83.388 573.932H78.84ZM78.84 581.96V575.948H83.844C84.764 575.948 85.512 576.248 86.088 576.848C86.664 577.44 86.952 578.172 86.952 579.044C86.952 579.956 86.632 580.672 85.992 581.192C85.352 581.704 84.556 581.96 83.604 581.96H78.84ZM95.7034 584.36C97.8634 584.36 99.4634 583.568 100.503 581.984V584H102.399V575.984C102.399 575.472 102.375 574.984 102.327 574.52C102.279 574.048 102.163 573.612 101.979 573.212C101.611 572.364 101.003 571.732 100.155 571.316C99.3074 570.892 98.2994 570.68 97.1314 570.68C95.6674 570.68 94.4834 571.004 93.5794 571.652C92.6834 572.3 92.0834 573.192 91.7794 574.328L93.8074 574.94C94.0394 574.148 94.4514 573.572 95.0434 573.212C95.6354 572.852 96.3234 572.672 97.1074 572.672C98.2274 572.672 99.0314 572.924 99.5194 573.428C100.015 573.924 100.275 574.688 100.299 575.72C99.3394 575.856 98.3314 576 97.2754 576.152C96.2274 576.296 95.2954 576.476 94.4794 576.692C93.4954 576.98 92.7194 577.432 92.1514 578.048C91.5834 578.656 91.2994 579.472 91.2994 580.496C91.2994 581.192 91.4634 581.832 91.7914 582.416C92.1274 583 92.6194 583.472 93.2674 583.832C93.9234 584.184 94.7354 584.36 95.7034 584.36ZM96.0274 582.572C95.1074 582.572 94.4434 582.36 94.0354 581.936C93.6274 581.504 93.4234 581.02 93.4234 580.484C93.4234 579.876 93.6234 579.412 94.0234 579.092C94.4314 578.764 94.9034 578.516 95.4394 578.348C96.0714 578.172 96.8074 578.024 97.6474 577.904C98.4874 577.784 99.3634 577.664 100.275 577.544C100.275 577.84 100.259 578.176 100.227 578.552C100.203 578.928 100.147 579.272 100.059 579.584C99.9074 580.384 99.4834 581.084 98.7874 581.684C98.0994 582.276 97.1794 582.572 96.0274 582.572ZM110.895 584.348C112.511 584.348 113.779 583.992 114.699 583.28C115.619 582.568 116.079 581.584 116.079 580.328C116.079 579.656 115.939 579.092 115.659 578.636C115.379 578.172 114.907 577.772 114.243 577.436C113.587 577.092 112.687 576.776 111.543 576.488C110.527 576.232 109.751 576.004 109.215 575.804C108.687 575.604 108.323 575.392 108.123 575.168C107.931 574.944 107.835 574.676 107.835 574.364C107.835 573.812 108.095 573.372 108.615 573.044C109.143 572.716 109.827 572.564 110.667 572.588C111.547 572.612 112.271 572.828 112.839 573.236C113.407 573.636 113.743 574.18 113.847 574.868L116.031 574.472C115.895 573.328 115.335 572.412 114.351 571.724C113.375 571.028 112.147 570.68 110.667 570.68C109.171 570.68 107.967 571.028 107.055 571.724C106.143 572.412 105.687 573.328 105.687 574.472C105.687 575.088 105.823 575.612 106.095 576.044C106.375 576.476 106.843 576.856 107.499 577.184C108.163 577.512 109.067 577.828 110.211 578.132C111.267 578.412 112.055 578.656 112.575 578.864C113.103 579.064 113.451 579.276 113.619 579.5C113.787 579.724 113.871 580.02 113.871 580.388C113.871 581.02 113.615 581.52 113.103 581.888C112.599 582.256 111.907 582.44 111.027 582.44C110.091 582.44 109.307 582.236 108.675 581.828C108.043 581.412 107.639 580.852 107.463 580.148L105.279 580.496C105.503 581.712 106.107 582.66 107.091 583.34C108.083 584.012 109.351 584.348 110.895 584.348ZM119.446 568.748H121.582V566.54H119.446V568.748ZM119.446 584H121.582V571.04H119.446V584ZM131.122 584.36C132.458 584.36 133.602 584.04 134.554 583.4C135.506 582.76 136.21 581.836 136.666 580.628L134.506 580.064C133.906 581.576 132.778 582.332 131.122 582.332C129.834 582.332 128.862 581.892 128.206 581.012C127.558 580.132 127.226 578.968 127.21 577.52C127.226 576.112 127.55 574.96 128.182 574.064C128.814 573.16 129.794 572.708 131.122 572.708C131.906 572.708 132.606 572.916 133.222 573.332C133.838 573.748 134.282 574.332 134.554 575.084L136.666 574.448C136.322 573.28 135.654 572.36 134.662 571.688C133.678 571.016 132.506 570.68 131.146 570.68C129.85 570.68 128.738 570.972 127.81 571.556C126.89 572.132 126.186 572.932 125.698 573.956C125.21 574.98 124.958 576.168 124.942 577.52C124.958 578.84 125.206 580.016 125.686 581.048C126.166 582.08 126.862 582.892 127.774 583.484C128.694 584.068 129.81 584.36 131.122 584.36ZM151.984 584.36C153.984 584.36 155.628 583.852 156.916 582.836C158.212 581.812 159.104 580.444 159.592 578.732L157.42 578.156C157.068 579.436 156.436 580.452 155.524 581.204C154.62 581.948 153.44 582.32 151.984 582.32C150.696 582.32 149.62 582.028 148.756 581.444C147.892 580.86 147.244 580.044 146.812 578.996C146.38 577.948 146.168 576.736 146.176 575.36C146.184 573.976 146.404 572.764 146.836 571.724C147.268 570.676 147.912 569.86 148.768 569.276C149.624 568.692 150.696 568.4 151.984 568.4C153.44 568.4 154.62 568.772 155.524 569.516C156.436 570.26 157.068 571.276 157.42 572.564L159.592 571.988C159.104 570.268 158.212 568.9 156.916 567.884C155.628 566.868 153.984 566.36 151.984 566.36C150.264 566.36 148.8 566.74 147.592 567.5C146.392 568.26 145.48 569.316 144.856 570.668C144.232 572.02 143.92 573.584 143.92 575.36C143.92 577.136 144.232 578.7 144.856 580.052C145.48 581.404 146.392 582.46 147.592 583.22C148.8 583.98 150.264 584.36 151.984 584.36ZM168.224 584.36C169.512 584.36 170.62 584.072 171.548 583.496C172.484 582.92 173.204 582.116 173.708 581.084C174.22 580.052 174.476 578.86 174.476 577.508C174.476 576.172 174.224 574.992 173.72 573.968C173.224 572.936 172.508 572.132 171.572 571.556C170.636 570.972 169.52 570.68 168.224 570.68C166.96 570.68 165.86 570.968 164.924 571.544C163.988 572.112 163.264 572.908 162.752 573.932C162.24 574.956 161.984 576.148 161.984 577.508C161.984 578.844 162.232 580.028 162.728 581.06C163.232 582.092 163.952 582.9 164.888 583.484C165.824 584.068 166.936 584.36 168.224 584.36ZM168.224 582.332C166.92 582.332 165.932 581.896 165.26 581.024C164.588 580.144 164.252 578.972 164.252 577.508C164.252 576.092 164.576 574.94 165.224 574.052C165.872 573.156 166.872 572.708 168.224 572.708C169.552 572.708 170.548 573.144 171.212 574.016C171.876 574.888 172.208 576.052 172.208 577.508C172.208 578.932 171.876 580.092 171.212 580.988C170.556 581.884 169.56 582.332 168.224 582.332ZM177.838 584H179.974V566.36H177.838V584ZM189.575 584.36C190.863 584.36 191.971 584.072 192.899 583.496C193.835 582.92 194.555 582.116 195.059 581.084C195.571 580.052 195.827 578.86 195.827 577.508C195.827 576.172 195.575 574.992 195.071 573.968C194.575 572.936 193.859 572.132 192.923 571.556C191.987 570.972 190.871 570.68 189.575 570.68C188.311 570.68 187.211 570.968 186.275 571.544C185.339 572.112 184.615 572.908 184.103 573.932C183.591 574.956 183.335 576.148 183.335 577.508C183.335 578.844 183.583 580.028 184.079 581.06C184.583 582.092 185.303 582.9 186.239 583.484C187.175 584.068 188.287 584.36 189.575 584.36ZM189.575 582.332C188.271 582.332 187.283 581.896 186.611 581.024C185.939 580.144 185.603 578.972 185.603 577.508C185.603 576.092 185.927 574.94 186.575 574.052C187.223 573.156 188.223 572.708 189.575 572.708C190.903 572.708 191.899 573.144 192.563 574.016C193.227 574.888 193.559 576.052 193.559 577.508C193.559 578.932 193.227 580.092 192.563 580.988C191.907 581.884 190.911 582.332 189.575 582.332ZM198.949 584H201.097V577.496C201.097 576.728 201.201 575.988 201.409 575.276C201.617 574.564 202.037 573.984 202.669 573.536C203.117 573.208 203.609 573.016 204.145 572.96C204.689 572.904 205.185 572.932 205.633 573.044V571.04C205.057 570.912 204.425 570.912 203.737 571.04C203.049 571.168 202.457 571.432 201.961 571.832C201.529 572.136 201.161 572.556 200.857 573.092V571.04H198.949V584Z" fill="black"/>
<path d="M76.68 1660H84.012C85.596 1660 86.848 1659.56 87.768 1658.67C88.688 1657.77 89.148 1656.57 89.148 1655.06C89.148 1654.1 88.908 1653.25 88.428 1652.52C87.948 1651.79 87.268 1651.23 86.388 1650.86C86.988 1650.5 87.46 1650.02 87.804 1649.39C88.148 1648.77 88.32 1648.06 88.32 1647.27C88.32 1646.47 88.124 1645.72 87.732 1645.04C87.348 1644.34 86.788 1643.78 86.052 1643.36C85.324 1642.93 84.444 1642.72 83.412 1642.72H76.68V1660ZM78.84 1649.93V1644.74H83.388C84.196 1644.74 84.852 1644.97 85.356 1645.44C85.868 1645.92 86.124 1646.52 86.124 1647.27C86.124 1648.08 85.856 1648.72 85.32 1649.21C84.792 1649.69 84.148 1649.93 83.388 1649.93H78.84ZM78.84 1657.96V1651.95H83.844C84.764 1651.95 85.512 1652.25 86.088 1652.85C86.664 1653.44 86.952 1654.17 86.952 1655.04C86.952 1655.96 86.632 1656.67 85.992 1657.19C85.352 1657.7 84.556 1657.96 83.604 1657.96H78.84ZM95.7034 1660.36C97.8634 1660.36 99.4634 1659.57 100.503 1657.98V1660H102.399V1651.98C102.399 1651.47 102.375 1650.98 102.327 1650.52C102.279 1650.05 102.163 1649.61 101.979 1649.21C101.611 1648.36 101.003 1647.73 100.155 1647.32C99.3074 1646.89 98.2994 1646.68 97.1314 1646.68C95.6674 1646.68 94.4834 1647 93.5794 1647.65C92.6834 1648.3 92.0834 1649.19 91.7794 1650.33L93.8074 1650.94C94.0394 1650.15 94.4514 1649.57 95.0434 1649.21C95.6354 1648.85 96.3234 1648.67 97.1074 1648.67C98.2274 1648.67 99.0314 1648.92 99.5194 1649.43C100.015 1649.92 100.275 1650.69 100.299 1651.72C99.3394 1651.86 98.3314 1652 97.2754 1652.15C96.2274 1652.3 95.2954 1652.48 94.4794 1652.69C93.4954 1652.98 92.7194 1653.43 92.1514 1654.05C91.5834 1654.66 91.2994 1655.47 91.2994 1656.5C91.2994 1657.19 91.4634 1657.83 91.7914 1658.42C92.1274 1659 92.6194 1659.47 93.2674 1659.83C93.9234 1660.18 94.7354 1660.36 95.7034 1660.36ZM96.0274 1658.57C95.1074 1658.57 94.4434 1658.36 94.0354 1657.94C93.6274 1657.5 93.4234 1657.02 93.4234 1656.48C93.4234 1655.88 93.6234 1655.41 94.0234 1655.09C94.4314 1654.76 94.9034 1654.52 95.4394 1654.35C96.0714 1654.17 96.8074 1654.02 97.6474 1653.9C98.4874 1653.78 99.3634 1653.66 100.275 1653.54C100.275 1653.84 100.259 1654.18 100.227 1654.55C100.203 1654.93 100.147 1655.27 100.059 1655.58C99.9074 1656.38 99.4834 1657.08 98.7874 1657.68C98.0994 1658.28 97.1794 1658.57 96.0274 1658.57ZM111.459 1660.36C112.795 1660.36 113.939 1660.04 114.891 1659.4C115.843 1658.76 116.547 1657.84 117.003 1656.63L114.843 1656.06C114.243 1657.58 113.115 1658.33 111.459 1658.33C110.171 1658.33 109.199 1657.89 108.543 1657.01C107.895 1656.13 107.563 1654.97 107.547 1653.52C107.563 1652.11 107.887 1650.96 108.519 1650.06C109.151 1649.16 110.131 1648.71 111.459 1648.71C112.243 1648.71 112.943 1648.92 113.559 1649.33C114.175 1649.75 114.619 1650.33 114.891 1651.08L117.003 1650.45C116.659 1649.28 115.991 1648.36 114.999 1647.69C114.015 1647.02 112.843 1646.68 111.483 1646.68C110.187 1646.68 109.075 1646.97 108.147 1647.56C107.227 1648.13 106.523 1648.93 106.035 1649.96C105.547 1650.98 105.295 1652.17 105.279 1653.52C105.295 1654.84 105.543 1656.02 106.023 1657.05C106.503 1658.08 107.199 1658.89 108.111 1659.48C109.031 1660.07 110.147 1660.36 111.459 1660.36ZM119.92 1660H122.092V1653.76L127.984 1660H130.972L124.576 1653.52L130.3 1647.04H127.528L122.092 1653.28V1642.72H119.932L119.92 1660ZM137.735 1660.36C138.535 1660.36 139.251 1660.22 139.883 1659.95C140.523 1659.68 141.075 1659.3 141.539 1658.81V1660.06C141.563 1662.72 140.351 1664.06 137.903 1664.06C137.271 1664.06 136.663 1663.91 136.079 1663.62C135.495 1663.34 135.043 1662.88 134.723 1662.24L132.767 1663.28C133.311 1664.24 134.047 1664.96 134.975 1665.42C135.903 1665.89 136.875 1666.12 137.891 1666.12C139.443 1666.12 140.707 1665.79 141.683 1665.12C142.667 1664.47 143.283 1663.45 143.531 1662.08C143.595 1661.76 143.635 1661.43 143.651 1661.1C143.675 1660.78 143.687 1660.44 143.687 1660.08V1647.04H141.791V1648.49C141.319 1647.92 140.743 1647.48 140.063 1647.16C139.383 1646.84 138.603 1646.68 137.723 1646.68C136.523 1646.68 135.491 1646.98 134.627 1647.58C133.763 1648.17 133.095 1648.98 132.623 1650.02C132.159 1651.05 131.927 1652.21 131.927 1653.51C131.927 1654.8 132.159 1655.97 132.623 1657C133.087 1658.03 133.751 1658.85 134.615 1659.46C135.487 1660.06 136.527 1660.36 137.735 1660.36ZM137.999 1658.4C137.151 1658.4 136.443 1658.19 135.875 1657.76C135.315 1657.32 134.895 1656.74 134.615 1656C134.335 1655.26 134.195 1654.43 134.195 1653.51C134.195 1652.6 134.331 1651.77 134.603 1651.04C134.883 1650.3 135.307 1649.72 135.875 1649.28C136.451 1648.85 137.179 1648.64 138.059 1648.64C139.323 1648.64 140.259 1649.09 140.867 1650C141.483 1650.91 141.791 1652.08 141.791 1653.51C141.791 1654.93 141.487 1656.1 140.879 1657.02C140.271 1657.94 139.311 1658.4 137.999 1658.4ZM147.518 1660H149.666V1653.5C149.666 1652.73 149.77 1651.99 149.978 1651.28C150.186 1650.56 150.606 1649.98 151.238 1649.54C151.686 1649.21 152.178 1649.02 152.714 1648.96C153.258 1648.9 153.754 1648.93 154.202 1649.04V1647.04C153.626 1646.91 152.994 1646.91 152.306 1647.04C151.618 1647.17 151.026 1647.43 150.53 1647.83C150.098 1648.14 149.73 1648.56 149.426 1649.09V1647.04H147.518V1660ZM162.236 1660.36C163.524 1660.36 164.632 1660.07 165.56 1659.5C166.496 1658.92 167.216 1658.12 167.72 1657.08C168.232 1656.05 168.488 1654.86 168.488 1653.51C168.488 1652.17 168.236 1650.99 167.732 1649.97C167.236 1648.94 166.52 1648.13 165.584 1647.56C164.648 1646.97 163.532 1646.68 162.236 1646.68C160.972 1646.68 159.872 1646.97 158.936 1647.54C158 1648.11 157.276 1648.91 156.764 1649.93C156.252 1650.96 155.996 1652.15 155.996 1653.51C155.996 1654.84 156.244 1656.03 156.74 1657.06C157.244 1658.09 157.964 1658.9 158.9 1659.48C159.836 1660.07 160.948 1660.36 162.236 1660.36ZM162.236 1658.33C160.932 1658.33 159.944 1657.9 159.272 1657.02C158.6 1656.14 158.264 1654.97 158.264 1653.51C158.264 1652.09 158.588 1650.94 159.236 1650.05C159.884 1649.16 160.884 1648.71 162.236 1648.71C163.564 1648.71 164.56 1649.14 165.224 1650.02C165.888 1650.89 166.22 1652.05 166.22 1653.51C166.22 1654.93 165.888 1656.09 165.224 1656.99C164.568 1657.88 163.572 1658.33 162.236 1658.33ZM176.53 1660.34C178.418 1660.34 179.858 1659.67 180.85 1658.33V1660H182.758V1647.04H180.61V1653.87C180.61 1655.36 180.282 1656.48 179.626 1657.22C178.978 1657.94 178.118 1658.31 177.046 1658.31C176.134 1658.31 175.422 1658.08 174.91 1657.62C174.406 1657.17 174.05 1656.58 173.842 1655.85C173.634 1655.11 173.53 1654.34 173.53 1653.53V1647.04H171.37V1654.2C171.37 1654.82 171.442 1655.48 171.586 1656.2C171.738 1656.9 172.002 1657.57 172.378 1658.2C172.762 1658.82 173.29 1659.34 173.962 1659.74C174.634 1660.14 175.49 1660.34 176.53 1660.34ZM186.586 1660H188.746V1653.17C188.746 1651.67 189.07 1650.55 189.718 1649.82C190.374 1649.1 191.238 1648.73 192.31 1648.73C193.222 1648.73 193.934 1648.96 194.446 1649.42C194.958 1649.87 195.314 1650.46 195.514 1651.19C195.722 1651.92 195.826 1652.69 195.826 1653.51V1660H197.986V1652.84C197.986 1652.22 197.91 1651.56 197.758 1650.86C197.614 1650.14 197.35 1649.48 196.966 1648.85C196.59 1648.22 196.066 1647.7 195.394 1647.3C194.73 1646.9 193.874 1646.7 192.826 1646.7C190.938 1646.7 189.498 1647.37 188.506 1648.71V1647.04H186.586V1660ZM206.557 1660.36C207.437 1660.36 208.213 1660.2 208.885 1659.88C209.565 1659.55 210.141 1659.1 210.613 1658.54V1660H212.521V1642.72H210.373V1648.22C209.909 1647.74 209.357 1647.36 208.717 1647.09C208.077 1646.82 207.353 1646.68 206.545 1646.68C205.345 1646.68 204.309 1646.98 203.437 1647.58C202.573 1648.17 201.909 1648.98 201.445 1650.02C200.981 1651.05 200.749 1652.21 200.749 1653.51C200.749 1654.8 200.981 1655.97 201.445 1657C201.909 1658.03 202.573 1658.85 203.437 1659.46C204.309 1660.06 205.349 1660.36 206.557 1660.36ZM206.821 1658.4C205.973 1658.4 205.265 1658.19 204.697 1657.76C204.137 1657.32 203.717 1656.74 203.437 1656C203.157 1655.26 203.017 1654.43 203.017 1653.51C203.017 1652.6 203.153 1651.77 203.425 1651.04C203.705 1650.3 204.129 1649.72 204.697 1649.28C205.273 1648.85 206.001 1648.64 206.881 1648.64C208.145 1648.64 209.081 1649.09 209.689 1650C210.305 1650.91 210.613 1652.08 210.613 1653.51C210.613 1654.93 210.309 1656.1 209.701 1657.02C209.093 1657.94 208.133 1658.4 206.821 1658.4ZM228.751 1660.36C230.751 1660.36 232.395 1659.85 233.683 1658.84C234.979 1657.81 235.871 1656.44 236.359 1654.73L234.187 1654.16C233.835 1655.44 233.203 1656.45 232.291 1657.2C231.387 1657.95 230.207 1658.32 228.751 1658.32C227.463 1658.32 226.387 1658.03 225.523 1657.44C224.659 1656.86 224.011 1656.04 223.579 1655C223.147 1653.95 222.935 1652.74 222.943 1651.36C222.951 1649.98 223.171 1648.76 223.603 1647.72C224.035 1646.68 224.679 1645.86 225.535 1645.28C226.391 1644.69 227.463 1644.4 228.751 1644.4C230.207 1644.4 231.387 1644.77 232.291 1645.52C233.203 1646.26 233.835 1647.28 234.187 1648.56L236.359 1647.99C235.871 1646.27 234.979 1644.9 233.683 1643.88C232.395 1642.87 230.751 1642.36 228.751 1642.36C227.031 1642.36 225.567 1642.74 224.359 1643.5C223.159 1644.26 222.247 1645.32 221.623 1646.67C220.999 1648.02 220.687 1649.58 220.687 1651.36C220.687 1653.14 220.999 1654.7 221.623 1656.05C222.247 1657.4 223.159 1658.46 224.359 1659.22C225.567 1659.98 227.031 1660.36 228.751 1660.36ZM244.991 1660.36C246.279 1660.36 247.387 1660.07 248.315 1659.5C249.251 1658.92 249.971 1658.12 250.475 1657.08C250.987 1656.05 251.243 1654.86 251.243 1653.51C251.243 1652.17 250.991 1650.99 250.487 1649.97C249.991 1648.94 249.275 1648.13 248.339 1647.56C247.403 1646.97 246.287 1646.68 244.991 1646.68C243.727 1646.68 242.627 1646.97 241.691 1647.54C240.755 1648.11 240.031 1648.91 239.519 1649.93C239.007 1650.96 238.751 1652.15 238.751 1653.51C238.751 1654.84 238.999 1656.03 239.495 1657.06C239.999 1658.09 240.719 1658.9 241.655 1659.48C242.591 1660.07 243.703 1660.36 244.991 1660.36ZM244.991 1658.33C243.687 1658.33 242.699 1657.9 242.027 1657.02C241.355 1656.14 241.019 1654.97 241.019 1653.51C241.019 1652.09 241.343 1650.94 241.991 1650.05C242.639 1649.16 243.639 1648.71 244.991 1648.71C246.319 1648.71 247.315 1649.14 247.979 1650.02C248.643 1650.89 248.975 1652.05 248.975 1653.51C248.975 1654.93 248.643 1656.09 247.979 1656.99C247.323 1657.88 246.327 1658.33 244.991 1658.33ZM254.605 1660H256.741V1642.36H254.605V1660ZM266.342 1660.36C267.63 1660.36 268.738 1660.07 269.666 1659.5C270.602 1658.92 271.322 1658.12 271.826 1657.08C272.338 1656.05 272.594 1654.86 272.594 1653.51C272.594 1652.17 272.342 1650.99 271.838 1649.97C271.342 1648.94 270.626 1648.13 269.69 1647.56C268.754 1646.97 267.638 1646.68 266.342 1646.68C265.078 1646.68 263.978 1646.97 263.042 1647.54C262.106 1648.11 261.382 1648.91 260.87 1649.93C260.358 1650.96 260.102 1652.15 260.102 1653.51C260.102 1654.84 260.35 1656.03 260.846 1657.06C261.35 1658.09 262.07 1658.9 263.006 1659.48C263.942 1660.07 265.054 1660.36 266.342 1660.36ZM266.342 1658.33C265.038 1658.33 264.05 1657.9 263.378 1657.02C262.706 1656.14 262.37 1654.97 262.37 1653.51C262.37 1652.09 262.694 1650.94 263.342 1650.05C263.99 1649.16 264.99 1648.71 266.342 1648.71C267.67 1648.71 268.666 1649.14 269.33 1650.02C269.994 1650.89 270.326 1652.05 270.326 1653.51C270.326 1654.93 269.994 1656.09 269.33 1656.99C268.674 1657.88 267.678 1658.33 266.342 1658.33ZM275.716 1660H277.864V1653.5C277.864 1652.73 277.968 1651.99 278.176 1651.28C278.384 1650.56 278.804 1649.98 279.436 1649.54C279.884 1649.21 280.376 1649.02 280.912 1648.96C281.456 1648.9 281.952 1648.93 282.4 1649.04V1647.04C281.824 1646.91 281.192 1646.91 280.504 1647.04C279.816 1647.17 279.224 1647.43 278.728 1647.83C278.296 1648.14 277.928 1648.56 277.624 1649.09V1647.04H275.716V1660Z" fill="black"/>
<rect x="75" y="1698" width="468" height="150" rx="16" fill="#F1F2F4"/>
</svg>
