<svg width="258" height="900" viewBox="0 0 258 900" fill="none" xmlns="http://www.w3.org/2000/svg">
<rect width="258" height="900" fill="#110D59"/>
<g clip-path="url(#clip0_59_14900)">
<path d="M33.9998 38.3333C38.6022 38.3333 42.3332 34.6023 42.3332 30C42.3332 25.3976 38.6022 21.6666 33.9998 21.6666C29.3975 21.6666 25.6665 25.3976 25.6665 30C25.6665 34.6023 29.3975 38.3333 33.9998 38.3333Z" stroke="white" stroke-width="2" stroke-linecap="round" stroke-linejoin="round"/>
<path d="M35.9248 26.6666L40.7081 34.95" stroke="white" stroke-width="2" stroke-linecap="round" stroke-linejoin="round"/>
<path d="M32.0752 26.6666H41.6419" stroke="white" stroke-width="2" stroke-linecap="round" stroke-linejoin="round"/>
<path d="M30.1499 30L34.9332 21.7167" stroke="white" stroke-width="2" stroke-linecap="round" stroke-linejoin="round"/>
<path d="M32.0748 33.3334L27.2915 25.05" stroke="white" stroke-width="2" stroke-linecap="round" stroke-linejoin="round"/>
<path d="M35.9251 33.3334H26.3584" stroke="white" stroke-width="2" stroke-linecap="round" stroke-linejoin="round"/>
<path d="M37.8502 30L33.0669 38.2833" stroke="white" stroke-width="2" stroke-linecap="round" stroke-linejoin="round"/>
</g>
<path d="M66.26 23.04C67.7267 23.04 69.0133 23.3267 70.12 23.9C71.24 24.4733 72.1 25.2933 72.7 26.36C73.3133 27.4133 73.62 28.64 73.62 30.04C73.62 31.44 73.3133 32.6667 72.7 33.72C72.1 34.76 71.24 35.5667 70.12 36.14C69.0133 36.7133 67.7267 37 66.26 37H61.38V23.04H66.26ZM66.16 34.62C67.6267 34.62 68.76 34.22 69.56 33.42C70.36 32.62 70.76 31.4933 70.76 30.04C70.76 28.5867 70.36 27.4533 69.56 26.64C68.76 25.8133 67.6267 25.4 66.16 25.4H64.18V34.62H66.16ZM74.9959 31.42C74.9959 30.3 75.2159 29.3067 75.6559 28.44C76.1093 27.5733 76.7159 26.9067 77.4759 26.44C78.2493 25.9733 79.1093 25.74 80.0559 25.74C80.8826 25.74 81.6026 25.9067 82.2159 26.24C82.8426 26.5733 83.3426 26.9933 83.7159 27.5V25.92H86.5359V37H83.7159V35.38C83.3559 35.9 82.8559 36.3333 82.2159 36.68C81.5893 37.0133 80.8626 37.18 80.0359 37.18C79.1026 37.18 78.2493 36.94 77.4759 36.46C76.7159 35.98 76.1093 35.3067 75.6559 34.44C75.2159 33.56 74.9959 32.5533 74.9959 31.42ZM83.7159 31.46C83.7159 30.78 83.5826 30.2 83.3159 29.72C83.0493 29.2267 82.6893 28.8533 82.2359 28.6C81.7826 28.3333 81.2959 28.2 80.7759 28.2C80.2559 28.2 79.7759 28.3267 79.3359 28.58C78.8959 28.8333 78.5359 29.2067 78.2559 29.7C77.9893 30.18 77.8559 30.7533 77.8559 31.42C77.8559 32.0867 77.9893 32.6733 78.2559 33.18C78.5359 33.6733 78.8959 34.0533 79.3359 34.32C79.7893 34.5867 80.2693 34.72 80.7759 34.72C81.2959 34.72 81.7826 34.5933 82.2359 34.34C82.6893 34.0733 83.0493 33.7 83.3159 33.22C83.5826 32.7267 83.7159 32.14 83.7159 31.46ZM93.5106 37.18C92.604 37.18 91.7906 37.02 91.0706 36.7C90.3506 36.3667 89.7773 35.92 89.3506 35.36C88.9373 34.8 88.7106 34.18 88.6706 33.5H91.4906C91.544 33.9267 91.7506 34.28 92.1106 34.56C92.484 34.84 92.944 34.98 93.4906 34.98C94.024 34.98 94.4373 34.8733 94.7306 34.66C95.0373 34.4467 95.1906 34.1733 95.1906 33.84C95.1906 33.48 95.004 33.2133 94.6306 33.04C94.2706 32.8533 93.6906 32.6533 92.8906 32.44C92.064 32.24 91.384 32.0333 90.8506 31.82C90.3306 31.6067 89.8773 31.28 89.4906 30.84C89.1173 30.4 88.9306 29.8067 88.9306 29.06C88.9306 28.4467 89.104 27.8867 89.4506 27.38C89.8106 26.8733 90.3173 26.4733 90.9706 26.18C91.6373 25.8867 92.4173 25.74 93.3106 25.74C94.6306 25.74 95.684 26.0733 96.4706 26.74C97.2573 27.3933 97.6906 28.28 97.7706 29.4H95.0906C95.0506 28.96 94.864 28.6133 94.5306 28.36C94.2106 28.0933 93.7773 27.96 93.2306 27.96C92.724 27.96 92.3306 28.0533 92.0506 28.24C91.784 28.4267 91.6506 28.6867 91.6506 29.02C91.6506 29.3933 91.8373 29.68 92.2106 29.88C92.584 30.0667 93.164 30.26 93.9506 30.46C94.7506 30.66 95.4106 30.8667 95.9306 31.08C96.4506 31.2933 96.8973 31.6267 97.2706 32.08C97.6573 32.52 97.8573 33.1067 97.8706 33.84C97.8706 34.48 97.6906 35.0533 97.3306 35.56C96.984 36.0667 96.4773 36.4667 95.8106 36.76C95.1573 37.04 94.3906 37.18 93.5106 37.18ZM106.409 25.76C107.249 25.76 107.996 25.9467 108.649 26.32C109.302 26.68 109.809 27.22 110.169 27.94C110.542 28.6467 110.729 29.5 110.729 30.5V37H107.929V30.88C107.929 30 107.709 29.3267 107.269 28.86C106.829 28.38 106.229 28.14 105.469 28.14C104.696 28.14 104.082 28.38 103.629 28.86C103.189 29.3267 102.969 30 102.969 30.88V37H100.169V22.2H102.969V27.3C103.329 26.82 103.809 26.4467 104.409 26.18C105.009 25.9 105.676 25.76 106.409 25.76ZM119.632 25.76C120.472 25.76 121.218 25.9467 121.872 26.32C122.525 26.68 123.032 27.22 123.392 27.94C123.765 28.6467 123.952 29.5 123.952 30.5V37H121.152V30.88C121.152 30 120.932 29.3267 120.492 28.86C120.052 28.38 119.452 28.14 118.692 28.14C117.918 28.14 117.305 28.38 116.852 28.86C116.412 29.3267 116.192 30 116.192 30.88V37H113.392V22.2H116.192V27.3C116.552 26.82 117.032 26.4467 117.632 26.18C118.232 25.9 118.898 25.76 119.632 25.76ZM132.854 25.76C133.694 25.76 134.441 25.9467 135.094 26.32C135.748 26.68 136.254 27.22 136.614 27.94C136.988 28.6467 137.174 29.5 137.174 30.5V37H134.374V30.88C134.374 30 134.154 29.3267 133.714 28.86C133.274 28.38 132.674 28.14 131.914 28.14C131.141 28.14 130.528 28.38 130.074 28.86C129.634 29.3267 129.414 30 129.414 30.88V37H126.614V22.2H129.414V27.3C129.774 26.82 130.254 26.4467 130.854 26.18C131.454 25.9 132.121 25.76 132.854 25.76ZM142.637 27.54C142.997 27.0067 143.49 26.5733 144.117 26.24C144.757 25.9067 145.484 25.74 146.297 25.74C147.244 25.74 148.097 25.9733 148.857 26.44C149.63 26.9067 150.237 27.5733 150.677 28.44C151.13 29.2933 151.357 30.2867 151.357 31.42C151.357 32.5533 151.13 33.56 150.677 34.44C150.237 35.3067 149.63 35.98 148.857 36.46C148.097 36.94 147.244 37.18 146.297 37.18C145.47 37.18 144.744 37.02 144.117 36.7C143.504 36.3667 143.01 35.94 142.637 35.42V37H139.837V22.2H142.637V27.54ZM148.497 31.42C148.497 30.7533 148.357 30.18 148.077 29.7C147.81 29.2067 147.45 28.8333 146.997 28.58C146.557 28.3267 146.077 28.2 145.557 28.2C145.05 28.2 144.57 28.3333 144.117 28.6C143.677 28.8533 143.317 29.2267 143.037 29.72C142.77 30.2133 142.637 30.7933 142.637 31.46C142.637 32.1267 142.77 32.7067 143.037 33.2C143.317 33.6933 143.677 34.0733 144.117 34.34C144.57 34.5933 145.05 34.72 145.557 34.72C146.077 34.72 146.557 34.5867 146.997 34.32C147.45 34.0533 147.81 33.6733 148.077 33.18C148.357 32.6867 148.497 32.1 148.497 31.42ZM158.312 37.18C157.245 37.18 156.285 36.9467 155.432 36.48C154.578 36 153.905 35.3267 153.412 34.46C152.932 33.5933 152.692 32.5933 152.692 31.46C152.692 30.3267 152.938 29.3267 153.432 28.46C153.938 27.5933 154.625 26.9267 155.492 26.46C156.358 25.98 157.325 25.74 158.392 25.74C159.458 25.74 160.425 25.98 161.292 26.46C162.158 26.9267 162.838 27.5933 163.332 28.46C163.838 29.3267 164.092 30.3267 164.092 31.46C164.092 32.5933 163.832 33.5933 163.312 34.46C162.805 35.3267 162.112 36 161.232 36.48C160.365 36.9467 159.392 37.18 158.312 37.18ZM158.312 34.74C158.818 34.74 159.292 34.62 159.732 34.38C160.185 34.1267 160.545 33.7533 160.812 33.26C161.078 32.7667 161.212 32.1667 161.212 31.46C161.212 30.4067 160.932 29.6 160.372 29.04C159.825 28.4667 159.152 28.18 158.352 28.18C157.552 28.18 156.878 28.4667 156.332 29.04C155.798 29.6 155.532 30.4067 155.532 31.46C155.532 32.5133 155.792 33.3267 156.312 33.9C156.845 34.46 157.512 34.74 158.312 34.74ZM165.426 31.42C165.426 30.3 165.646 29.3067 166.086 28.44C166.539 27.5733 167.146 26.9067 167.906 26.44C168.679 25.9733 169.539 25.74 170.486 25.74C171.312 25.74 172.032 25.9067 172.646 26.24C173.272 26.5733 173.772 26.9933 174.146 27.5V25.92H176.966V37H174.146V35.38C173.786 35.9 173.286 36.3333 172.646 36.68C172.019 37.0133 171.292 37.18 170.466 37.18C169.532 37.18 168.679 36.94 167.906 36.46C167.146 35.98 166.539 35.3067 166.086 34.44C165.646 33.56 165.426 32.5533 165.426 31.42ZM174.146 31.46C174.146 30.78 174.012 30.2 173.746 29.72C173.479 29.2267 173.119 28.8533 172.666 28.6C172.212 28.3333 171.726 28.2 171.206 28.2C170.686 28.2 170.206 28.3267 169.766 28.58C169.326 28.8333 168.966 29.2067 168.686 29.7C168.419 30.18 168.286 30.7533 168.286 31.42C168.286 32.0867 168.419 32.6733 168.686 33.18C168.966 33.6733 169.326 34.0533 169.766 34.32C170.219 34.5867 170.699 34.72 171.206 34.72C171.726 34.72 172.212 34.5933 172.666 34.34C173.119 34.0733 173.479 33.7 173.746 33.22C174.012 32.7267 174.146 32.14 174.146 31.46ZM182.5 27.64C182.86 27.0533 183.327 26.5933 183.9 26.26C184.487 25.9267 185.154 25.76 185.9 25.76V28.7H185.16C184.28 28.7 183.614 28.9067 183.16 29.32C182.72 29.7333 182.5 30.4533 182.5 31.48V37H179.7V25.92H182.5V27.64ZM187.066 31.42C187.066 30.3 187.286 29.3067 187.726 28.44C188.18 27.5733 188.793 26.9067 189.566 26.44C190.34 25.9733 191.2 25.74 192.146 25.74C192.866 25.74 193.553 25.9 194.206 26.22C194.86 26.5267 195.38 26.94 195.766 27.46V22.2H198.606V37H195.766V35.36C195.42 35.9067 194.933 36.3467 194.306 36.68C193.68 37.0133 192.953 37.18 192.126 37.18C191.193 37.18 190.34 36.94 189.566 36.46C188.793 35.98 188.18 35.3067 187.726 34.44C187.286 33.56 187.066 32.5533 187.066 31.42ZM195.786 31.46C195.786 30.78 195.653 30.2 195.386 29.72C195.12 29.2267 194.76 28.8533 194.306 28.6C193.853 28.3333 193.366 28.2 192.846 28.2C192.326 28.2 191.846 28.3267 191.406 28.58C190.966 28.8333 190.606 29.2067 190.326 29.7C190.06 30.18 189.926 30.7533 189.926 31.42C189.926 32.0867 190.06 32.6733 190.326 33.18C190.606 33.6733 190.966 34.0533 191.406 34.32C191.86 34.5867 192.34 34.72 192.846 34.72C193.366 34.72 193.853 34.5933 194.306 34.34C194.76 34.0733 195.12 33.7 195.386 33.22C195.653 32.7267 195.786 32.14 195.786 31.46Z" fill="white"/>
<path fill-rule="evenodd" clip-rule="evenodd" d="M228 20.7502C222.892 20.7502 218.75 24.8912 218.75 30.0002C218.75 35.1082 222.892 39.2502 228 39.2502C233.108 39.2502 237.25 35.1082 237.25 30.0002C237.25 24.8912 233.108 20.7502 228 20.7502Z" fill="#A3D1FC"/>
<path d="M227.999 26.6023V33.3792" stroke="#110D59" stroke-width="1.5" stroke-linecap="round" stroke-linejoin="round"/>
<path d="M231.391 29.9917L224.607 29.991" stroke="#110D59" stroke-width="1.5" stroke-linecap="round" stroke-linejoin="round"/>
<rect x="16" y="76" width="226" height="45" rx="8" fill="white"/>
<path fill-rule="evenodd" clip-rule="evenodd" d="M31.7832 90.1666H34.5998C35.7748 90.1666 36.7165 91.125 36.7165 92.3008V95.1416C36.7165 96.325 35.7748 97.275 34.5998 97.275H31.7832C30.6165 97.275 29.6665 96.325 29.6665 95.1416V92.3008C29.6665 91.125 30.6165 90.1666 31.7832 90.1666ZM31.7832 99.7247H34.5998C35.7748 99.7247 36.7165 100.676 36.7165 101.859V104.7C36.7165 105.875 35.7748 106.833 34.5998 106.833H31.7832C30.6165 106.833 29.6665 105.875 29.6665 104.7V101.859C29.6665 100.676 30.6165 99.7247 31.7832 99.7247ZM44.2166 90.1666H41.3999C40.2249 90.1666 39.2833 91.125 39.2833 92.3008V95.1416C39.2833 96.325 40.2249 97.275 41.3999 97.275H44.2166C45.3833 97.275 46.3333 96.325 46.3333 95.1416V92.3008C46.3333 91.125 45.3833 90.1666 44.2166 90.1666ZM41.3999 99.7247H44.2166C45.3833 99.7247 46.3333 100.676 46.3333 101.859V104.7C46.3333 105.875 45.3833 106.833 44.2166 106.833H41.3999C40.2249 106.833 39.2833 105.875 39.2833 104.7V101.859C39.2833 100.676 40.2249 99.7247 41.3999 99.7247Z" fill="#28246F"/>
<path d="M64.98 104H68.193C68.2723 104 68.438 103.998 68.69 103.993C68.9467 103.988 69.1893 103.972 69.418 103.944C70.2207 103.841 70.8973 103.559 71.448 103.097C71.9987 102.63 72.4163 102.038 72.701 101.319C72.9857 100.6 73.128 99.814 73.128 98.96C73.128 98.106 72.9857 97.3197 72.701 96.601C72.4163 95.8823 71.9987 95.2897 71.448 94.823C70.8973 94.3563 70.2207 94.074 69.418 93.976C69.1847 93.948 68.942 93.9317 68.69 93.927C68.4427 93.9223 68.277 93.92 68.193 93.92H64.98V104ZM66.695 102.411V95.509H68.193C68.333 95.509 68.5103 95.5137 68.725 95.523C68.9397 95.5277 69.1333 95.5487 69.306 95.586C69.7727 95.6747 70.1553 95.8823 70.454 96.209C70.7527 96.5357 70.9743 96.9393 71.119 97.42C71.2683 97.896 71.343 98.4093 71.343 98.96C71.343 99.4873 71.273 99.9913 71.133 100.472C70.993 100.953 70.7713 101.361 70.468 101.697C70.1693 102.028 69.782 102.241 69.306 102.334C69.1333 102.367 68.9397 102.388 68.725 102.397C68.5103 102.406 68.333 102.411 68.193 102.411H66.695ZM77.1767 104.21C77.7787 104.21 78.2897 104.112 78.7097 103.916C79.1344 103.715 79.5077 103.405 79.8297 102.985V104H81.3067V99.359C81.3067 99.0323 81.2927 98.7313 81.2647 98.456C81.2367 98.176 81.1551 97.903 81.0197 97.637C80.7724 97.1377 80.3921 96.7783 79.8787 96.559C79.3701 96.3397 78.7797 96.23 78.1077 96.23C77.2211 96.23 76.5141 96.4237 75.9867 96.811C75.4594 97.1983 75.1024 97.7117 74.9157 98.351L76.4557 98.834C76.5817 98.4467 76.8034 98.1737 77.1207 98.015C77.4381 97.8563 77.7671 97.777 78.1077 97.777C78.6211 97.777 78.9991 97.882 79.2417 98.092C79.4844 98.2973 79.6221 98.617 79.6547 99.051C78.9921 99.149 78.3761 99.2447 77.8067 99.338C77.2421 99.4267 76.7614 99.5363 76.3647 99.667C75.7674 99.8723 75.3311 100.164 75.0557 100.542C74.7804 100.915 74.6427 101.377 74.6427 101.928C74.6427 102.343 74.7384 102.724 74.9297 103.069C75.1257 103.414 75.4127 103.692 75.7907 103.902C76.1687 104.107 76.6307 104.21 77.1767 104.21ZM77.5127 102.866C77.1161 102.866 76.8127 102.775 76.6027 102.593C76.3974 102.411 76.2947 102.182 76.2947 101.907C76.2947 101.66 76.3741 101.459 76.5327 101.305C76.6961 101.151 76.9224 101.02 77.2117 100.913C77.4777 100.824 77.7974 100.747 78.1707 100.682C78.5441 100.612 79.0317 100.53 79.6337 100.437C79.6291 100.614 79.6174 100.813 79.5987 101.032C79.5801 101.247 79.5357 101.44 79.4657 101.613C79.4097 101.786 79.3001 101.97 79.1367 102.166C78.9781 102.362 78.7634 102.528 78.4927 102.663C78.2221 102.798 77.8954 102.866 77.5127 102.866ZM86.3281 104.21C87.3035 104.21 88.0665 103.993 88.6171 103.559C89.1725 103.125 89.4501 102.528 89.4501 101.767C89.4501 101.179 89.2635 100.717 88.8901 100.381C88.5215 100.045 87.8845 99.7603 86.9791 99.527C86.3911 99.3777 85.9478 99.2517 85.6491 99.149C85.3551 99.0463 85.1591 98.9437 85.0611 98.841C84.9631 98.7383 84.9141 98.6147 84.9141 98.47C84.9141 98.218 85.0355 98.022 85.2781 97.882C85.5208 97.7373 85.8405 97.6743 86.2371 97.693C86.6478 97.7163 86.9768 97.8213 87.2241 98.008C87.4761 98.1947 87.6255 98.449 87.6721 98.771L89.3941 98.463C89.3008 97.7817 88.9671 97.2403 88.3931 96.839C87.8191 96.433 87.0911 96.23 86.2091 96.23C85.3085 96.23 84.5875 96.44 84.0461 96.86C83.5048 97.28 83.2341 97.8447 83.2341 98.554C83.2341 99.1187 83.4231 99.5643 83.8011 99.891C84.1838 100.218 84.8488 100.505 85.7961 100.752C86.3655 100.901 86.7855 101.027 87.0561 101.13C87.3315 101.228 87.5111 101.328 87.5951 101.431C87.6791 101.534 87.7211 101.671 87.7211 101.844C87.7211 102.124 87.6091 102.346 87.3851 102.509C87.1611 102.668 86.8485 102.747 86.4471 102.747C85.9851 102.747 85.6001 102.64 85.2921 102.425C84.9888 102.21 84.7951 101.916 84.7111 101.543L82.9891 101.809C83.1151 102.57 83.4698 103.16 84.0531 103.58C84.6365 104 85.3948 104.21 86.3281 104.21ZM91.2494 104H92.9574V100.115C92.9574 99.5037 93.0437 99.0323 93.2164 98.701C93.3937 98.365 93.6177 98.134 93.8884 98.008C94.1637 97.8773 94.4437 97.812 94.7284 97.812C95.1297 97.812 95.4494 97.9007 95.6874 98.078C95.9254 98.2507 96.1004 98.4723 96.2124 98.743C96.329 99.009 96.4037 99.2867 96.4364 99.576C96.4737 99.8653 96.4924 100.127 96.4924 100.36V104H98.2004V99.779C98.2004 99.6017 98.184 99.366 98.1514 99.072C98.1234 98.778 98.058 98.4677 97.9554 98.141C97.8527 97.8143 97.694 97.5063 97.4794 97.217C97.2647 96.923 96.973 96.685 96.6044 96.503C96.2404 96.3163 95.7807 96.223 95.2254 96.223C94.6794 96.223 94.1987 96.3187 93.7834 96.51C93.3727 96.6967 93.0297 96.9533 92.7544 97.28V93.92H91.2494V104ZM100.293 104H101.784V103.44C102.055 103.683 102.37 103.872 102.729 104.007C103.088 104.142 103.492 104.21 103.94 104.21C104.64 104.21 105.247 104.035 105.76 103.685C106.278 103.335 106.679 102.859 106.964 102.257C107.249 101.655 107.391 100.976 107.391 100.22C107.391 99.4547 107.246 98.771 106.957 98.169C106.672 97.567 106.266 97.0933 105.739 96.748C105.212 96.4027 104.591 96.23 103.877 96.23C103.499 96.23 103.154 96.2813 102.841 96.384C102.528 96.482 102.246 96.6243 101.994 96.811V93.92H100.293V104ZM103.681 102.698C103.004 102.698 102.519 102.469 102.225 102.012C101.931 101.55 101.784 100.953 101.784 100.22C101.784 99.4827 101.929 98.8853 102.218 98.428C102.512 97.9707 102.981 97.742 103.625 97.742C104.078 97.742 104.449 97.854 104.738 98.078C105.032 98.2973 105.249 98.596 105.389 98.974C105.534 99.3473 105.606 99.7627 105.606 100.22C105.606 100.682 105.536 101.1 105.396 101.473C105.261 101.846 105.051 102.145 104.766 102.369C104.481 102.588 104.12 102.698 103.681 102.698ZM112.553 104.21C113.309 104.21 113.969 104.042 114.534 103.706C115.099 103.365 115.537 102.896 115.85 102.299C116.167 101.697 116.326 101.004 116.326 100.22C116.326 99.4407 116.17 98.7523 115.857 98.155C115.544 97.553 115.106 97.0817 114.541 96.741C113.976 96.4003 113.314 96.23 112.553 96.23C111.811 96.23 111.158 96.398 110.593 96.734C110.028 97.07 109.587 97.5367 109.27 98.134C108.953 98.7313 108.794 99.4267 108.794 100.22C108.794 100.999 108.948 101.69 109.256 102.292C109.569 102.889 110.007 103.358 110.572 103.699C111.137 104.04 111.797 104.21 112.553 104.21ZM112.553 102.628C111.904 102.628 111.412 102.411 111.076 101.977C110.745 101.538 110.579 100.953 110.579 100.22C110.579 99.506 110.738 98.9273 111.055 98.484C111.377 98.036 111.876 97.812 112.553 97.812C113.216 97.812 113.713 98.0313 114.044 98.47C114.375 98.904 114.541 99.4873 114.541 100.22C114.541 100.929 114.375 101.508 114.044 101.956C113.717 102.404 113.22 102.628 112.553 102.628ZM120.262 104.21C120.864 104.21 121.375 104.112 121.795 103.916C122.22 103.715 122.593 103.405 122.915 102.985V104H124.392V99.359C124.392 99.0323 124.378 98.7313 124.35 98.456C124.322 98.176 124.241 97.903 124.105 97.637C123.858 97.1377 123.478 96.7783 122.964 96.559C122.456 96.3397 121.865 96.23 121.193 96.23C120.307 96.23 119.6 96.4237 119.072 96.811C118.545 97.1983 118.188 97.7117 118.001 98.351L119.541 98.834C119.667 98.4467 119.889 98.1737 120.206 98.015C120.524 97.8563 120.853 97.777 121.193 97.777C121.707 97.777 122.085 97.882 122.327 98.092C122.57 98.2973 122.708 98.617 122.74 99.051C122.078 99.149 121.462 99.2447 120.892 99.338C120.328 99.4267 119.847 99.5363 119.45 99.667C118.853 99.8723 118.417 100.164 118.141 100.542C117.866 100.915 117.728 101.377 117.728 101.928C117.728 102.343 117.824 102.724 118.015 103.069C118.211 103.414 118.498 103.692 118.876 103.902C119.254 104.107 119.716 104.21 120.262 104.21ZM120.598 102.866C120.202 102.866 119.898 102.775 119.688 102.593C119.483 102.411 119.38 102.182 119.38 101.907C119.38 101.66 119.46 101.459 119.618 101.305C119.782 101.151 120.008 101.02 120.297 100.913C120.563 100.824 120.883 100.747 121.256 100.682C121.63 100.612 122.117 100.53 122.719 100.437C122.715 100.614 122.703 100.813 122.684 101.032C122.666 101.247 122.621 101.44 122.551 101.613C122.495 101.786 122.386 101.97 122.222 102.166C122.064 102.362 121.849 102.528 121.578 102.663C121.308 102.798 120.981 102.866 120.598 102.866ZM126.495 104H128.189V100.157C128.189 99.7183 128.268 99.3287 128.427 98.988C128.59 98.6473 128.844 98.3837 129.19 98.197C129.423 98.0617 129.684 97.9823 129.974 97.959C130.263 97.931 130.522 97.9497 130.751 98.015V96.44C130.41 96.3887 130.06 96.3957 129.701 96.461C129.341 96.5217 129.022 96.6477 128.742 96.839C128.583 96.937 128.441 97.056 128.315 97.196C128.189 97.3313 128.079 97.483 127.986 97.651V96.44H126.495V104ZM135.261 104.21C135.709 104.21 136.112 104.142 136.472 104.007C136.831 103.872 137.146 103.683 137.417 103.44V104H138.908V93.92H137.207V96.811C136.955 96.6243 136.672 96.482 136.36 96.384C136.047 96.2813 135.702 96.23 135.324 96.23C134.61 96.23 133.989 96.4027 133.462 96.748C132.939 97.0933 132.533 97.567 132.244 98.169C131.954 98.771 131.81 99.4547 131.81 100.22C131.81 100.976 131.952 101.655 132.237 102.257C132.521 102.859 132.923 103.335 133.441 103.685C133.959 104.035 134.565 104.21 135.261 104.21ZM135.52 102.698C135.081 102.698 134.719 102.588 134.435 102.369C134.15 102.145 133.938 101.846 133.798 101.473C133.662 101.1 133.595 100.682 133.595 100.22C133.595 99.7627 133.665 99.3473 133.805 98.974C133.949 98.596 134.166 98.2973 134.456 98.078C134.75 97.854 135.123 97.742 135.576 97.742C136.22 97.742 136.686 97.9707 136.976 98.428C137.27 98.8853 137.417 99.4827 137.417 100.22C137.417 100.953 137.27 101.55 136.976 102.012C136.686 102.469 136.201 102.698 135.52 102.698Z" fill="#110D59"/>
<path d="M41.0967 162.519H35.0801" stroke="#7E7BB3" stroke-width="1.5" stroke-linecap="round" stroke-linejoin="round"/>
<path d="M41.0967 159.031H35.0801" stroke="#7E7BB3" stroke-width="1.5" stroke-linecap="round" stroke-linejoin="round"/>
<path d="M37.3759 155.55H35.0801" stroke="#7E7BB3" stroke-width="1.5" stroke-linecap="round" stroke-linejoin="round"/>
<path fill-rule="evenodd" clip-rule="evenodd" d="M41.2572 151.292C41.2572 151.292 34.8597 151.295 34.8497 151.295C32.5497 151.309 31.1255 152.822 31.1255 155.131V162.794C31.1255 165.114 32.5605 166.633 34.8805 166.633C34.8805 166.633 41.2772 166.631 41.288 166.631C43.588 166.617 45.013 165.102 45.013 162.794V155.131C45.013 152.811 43.5772 151.292 41.2572 151.292Z" stroke="#7E7BB3" stroke-width="1.5" stroke-linecap="round" stroke-linejoin="round"/>
<path d="M64.98 164.5H66.226V160.776H68.963C69.0563 160.776 69.1707 160.771 69.306 160.762C69.4413 160.753 69.5743 160.739 69.705 160.72C70.517 160.594 71.1353 160.244 71.56 159.67C71.9847 159.091 72.197 158.401 72.197 157.598C72.197 156.795 71.9847 156.107 71.56 155.533C71.14 154.954 70.5217 154.602 69.705 154.476C69.5743 154.453 69.4413 154.439 69.306 154.434C69.1753 154.425 69.061 154.42 68.963 154.42H64.98V164.5ZM66.226 159.593V155.603H68.921C69.0097 155.603 69.11 155.608 69.222 155.617C69.3387 155.626 69.4483 155.643 69.551 155.666C70.0363 155.773 70.3863 156.018 70.601 156.401C70.8157 156.779 70.923 157.178 70.923 157.598C70.923 158.018 70.8157 158.419 70.601 158.802C70.3863 159.18 70.0363 159.423 69.551 159.53C69.4483 159.553 69.3387 159.57 69.222 159.579C69.11 159.588 69.0097 159.593 68.921 159.593H66.226ZM73.8733 164.5H75.1263V160.706C75.1263 160.258 75.1869 159.826 75.3083 159.411C75.4296 158.996 75.6746 158.657 76.0433 158.396C76.3046 158.205 76.5916 158.093 76.9043 158.06C77.2216 158.027 77.5109 158.044 77.7723 158.109V156.94C77.4363 156.865 77.0676 156.865 76.6663 156.94C76.2649 157.015 75.9196 157.169 75.6303 157.402C75.3783 157.579 75.1636 157.824 74.9863 158.137V156.94H73.8733V164.5ZM82.4592 164.71C83.2106 164.71 83.8569 164.542 84.3982 164.206C84.9442 163.87 85.3642 163.401 85.6582 162.799C85.9569 162.197 86.1062 161.502 86.1062 160.713C86.1062 159.934 85.9592 159.245 85.6652 158.648C85.3759 158.046 84.9582 157.577 84.4122 157.241C83.8662 156.9 83.2152 156.73 82.4592 156.73C81.7219 156.73 81.0802 156.898 80.5342 157.234C79.9882 157.565 79.5659 158.03 79.2672 158.627C78.9686 159.224 78.8192 159.92 78.8192 160.713C78.8192 161.492 78.9639 162.183 79.2532 162.785C79.5472 163.387 79.9672 163.858 80.5132 164.199C81.0592 164.54 81.7079 164.71 82.4592 164.71ZM82.4592 163.527C81.6986 163.527 81.1222 163.273 80.7302 162.764C80.3382 162.251 80.1422 161.567 80.1422 160.713C80.1422 159.887 80.3312 159.215 80.7092 158.697C81.0872 158.174 81.6706 157.913 82.4592 157.913C83.2339 157.913 83.8149 158.167 84.2022 158.676C84.5896 159.185 84.7832 159.864 84.7832 160.713C84.7832 161.544 84.5896 162.22 84.2022 162.743C83.8196 163.266 83.2386 163.527 82.4592 163.527ZM88.3334 155.603H89.5794V154.315H88.3334V155.603ZM86.8074 167.86H87.6824C88.9471 167.86 89.5794 167.225 89.5794 165.956V156.94H88.3334V165.529C88.3334 165.926 88.2378 166.215 88.0464 166.397C87.8551 166.579 87.5774 166.67 87.2134 166.67H86.8074V167.86ZM95.1612 164.71C95.8938 164.71 96.5542 164.528 97.1422 164.164C97.7302 163.795 98.1735 163.277 98.4722 162.61L97.2752 162.197C96.8412 163.084 96.1178 163.527 95.1052 163.527C94.4098 163.527 93.8638 163.315 93.4672 162.89C93.0752 162.461 92.8535 161.854 92.8022 161.07H98.5982C98.6355 160.174 98.5188 159.402 98.2482 158.753C97.9822 158.104 97.5808 157.605 97.0442 157.255C96.5122 156.905 95.8658 156.73 95.1052 156.73C94.3725 156.73 93.7332 156.896 93.1872 157.227C92.6412 157.554 92.2165 158.02 91.9132 158.627C91.6145 159.229 91.4652 159.943 91.4652 160.769C91.4652 161.558 91.6168 162.248 91.9202 162.841C92.2282 163.429 92.6598 163.889 93.2152 164.22C93.7705 164.547 94.4192 164.71 95.1612 164.71ZM95.1472 157.85C96.4305 157.85 97.1492 158.59 97.3032 160.069H92.8232C92.9118 159.35 93.1522 158.802 93.5442 158.424C93.9362 158.041 94.4705 157.85 95.1472 157.85ZM103.622 164.71C104.401 164.71 105.068 164.523 105.624 164.15C106.179 163.777 106.59 163.238 106.856 162.533L105.596 162.204C105.246 163.086 104.588 163.527 103.622 163.527C102.87 163.527 102.303 163.27 101.921 162.757C101.543 162.244 101.349 161.565 101.34 160.72C101.349 159.899 101.538 159.227 101.907 158.704C102.275 158.177 102.847 157.913 103.622 157.913C104.079 157.913 104.487 158.034 104.847 158.277C105.206 158.52 105.465 158.86 105.624 159.299L106.856 158.928C106.655 158.247 106.265 157.71 105.687 157.318C105.113 156.926 104.429 156.73 103.636 156.73C102.88 156.73 102.231 156.9 101.69 157.241C101.153 157.577 100.742 158.044 100.458 158.641C100.173 159.238 100.026 159.931 100.017 160.72C100.026 161.49 100.171 162.176 100.451 162.778C100.731 163.38 101.137 163.854 101.669 164.199C102.205 164.54 102.856 164.71 103.622 164.71ZM112.785 164.5V163.429C112.267 163.508 111.824 163.522 111.455 163.471C111.091 163.42 110.825 163.245 110.657 162.946C110.569 162.787 110.52 162.601 110.51 162.386C110.506 162.167 110.503 161.901 110.503 161.588V157.969H112.785V156.94H110.503V154.84H109.257V156.94H107.724V157.969H109.257V161.644C109.257 162.036 109.262 162.386 109.271 162.694C109.285 162.997 109.367 163.296 109.516 163.59C109.694 163.931 109.953 164.183 110.293 164.346C110.634 164.505 111.021 164.591 111.455 164.605C111.894 164.624 112.337 164.589 112.785 164.5Z" fill="white"/>
<path fill-rule="evenodd" clip-rule="evenodd" d="M38.0003 211.292C42.257 211.292 45.7087 214.743 45.7087 219C45.7087 223.257 42.257 226.708 38.0003 226.708C33.7428 226.708 30.292 223.257 30.292 219C30.292 214.743 33.7428 211.292 38.0003 211.292Z" stroke="#7E7BB3" stroke-width="1.5" stroke-linecap="round" stroke-linejoin="round"/>
<path d="M35.0337 219L37.012 220.978L40.967 217.023" stroke="#7E7BB3" stroke-width="1.5" stroke-linecap="round" stroke-linejoin="round"/>
<path d="M64.98 224.5H66.163V217.157L69.586 224.5H70.251L73.674 217.157V224.493H74.857V214.42H73.709L69.922 222.449L66.114 214.42H64.98V224.5ZM78.1498 227.86H79.3608L83.4768 216.94H82.2098L79.9978 222.89L77.6388 216.94H76.3298L79.3958 224.472L78.1498 227.86ZM90.5928 224.5H91.8388V215.603H95.2758V214.42H87.1558V215.603H90.5928V224.5ZM97.8349 224.71C99.0949 224.71 100.028 224.248 100.635 223.324V224.5H101.741V219.824C101.741 219.525 101.727 219.241 101.699 218.97C101.671 218.695 101.603 218.44 101.496 218.207C101.281 217.712 100.927 217.344 100.432 217.101C99.9373 216.854 99.3493 216.73 98.6679 216.73C97.8139 216.73 97.1233 216.919 96.5959 217.297C96.0733 217.675 95.7233 218.195 95.5459 218.858L96.7289 219.215C96.8643 218.753 97.1046 218.417 97.4499 218.207C97.7953 217.997 98.1966 217.892 98.6539 217.892C99.3073 217.892 99.7763 218.039 100.061 218.333C100.35 218.622 100.502 219.068 100.516 219.67C99.9559 219.749 99.3679 219.833 98.7519 219.922C98.1406 220.006 97.5969 220.111 97.1209 220.237C96.5469 220.405 96.0943 220.669 95.7629 221.028C95.4316 221.383 95.2659 221.859 95.2659 222.456C95.2659 222.862 95.3616 223.235 95.5529 223.576C95.7489 223.917 96.0359 224.192 96.4139 224.402C96.7966 224.607 97.2703 224.71 97.8349 224.71ZM98.0239 223.667C97.4873 223.667 97.0999 223.543 96.8619 223.296C96.6239 223.044 96.5049 222.762 96.5049 222.449C96.5049 222.094 96.6216 221.824 96.8549 221.637C97.0929 221.446 97.3683 221.301 97.6809 221.203C98.0496 221.1 98.4789 221.014 98.9689 220.944C99.4589 220.874 99.9699 220.804 100.502 220.734C100.502 220.907 100.493 221.103 100.474 221.322C100.46 221.541 100.427 221.742 100.376 221.924C100.287 222.391 100.04 222.799 99.6339 223.149C99.2326 223.494 98.6959 223.667 98.0239 223.667ZM106.697 224.703C107.64 224.703 108.379 224.495 108.916 224.08C109.453 223.665 109.721 223.091 109.721 222.358C109.721 221.966 109.639 221.637 109.476 221.371C109.313 221.1 109.037 220.867 108.65 220.671C108.267 220.47 107.742 220.286 107.075 220.118C106.482 219.969 106.03 219.836 105.717 219.719C105.409 219.602 105.197 219.479 105.08 219.348C104.968 219.217 104.912 219.061 104.912 218.879C104.912 218.557 105.064 218.3 105.367 218.109C105.675 217.918 106.074 217.829 106.564 217.843C107.077 217.857 107.5 217.983 107.831 218.221C108.162 218.454 108.358 218.772 108.419 219.173L109.693 218.942C109.614 218.275 109.287 217.74 108.713 217.339C108.144 216.933 107.427 216.73 106.564 216.73C105.691 216.73 104.989 216.933 104.457 217.339C103.925 217.74 103.659 218.275 103.659 218.942C103.659 219.301 103.738 219.607 103.897 219.859C104.06 220.111 104.333 220.333 104.716 220.524C105.103 220.715 105.631 220.9 106.298 221.077C106.914 221.24 107.374 221.383 107.677 221.504C107.985 221.621 108.188 221.744 108.286 221.875C108.384 222.006 108.433 222.178 108.433 222.393C108.433 222.762 108.284 223.053 107.985 223.268C107.691 223.483 107.287 223.59 106.774 223.59C106.228 223.59 105.771 223.471 105.402 223.233C105.033 222.99 104.798 222.664 104.695 222.253L103.421 222.456C103.552 223.165 103.904 223.718 104.478 224.115C105.057 224.507 105.796 224.703 106.697 224.703ZM111.538 224.5H112.805V220.86L116.242 224.5H117.985L114.254 220.72L117.593 216.94H115.976L112.805 220.58V214.42H111.545L111.538 224.5Z" fill="white"/>
<path fill-rule="evenodd" clip-rule="evenodd" d="M41.612 271.292H34.3878C31.8703 271.292 30.292 273.074 30.292 275.597V282.404C30.292 284.926 31.8628 286.709 34.3878 286.709H41.6112C44.137 286.709 45.7087 284.926 45.7087 282.404V275.597C45.7087 273.074 44.137 271.292 41.612 271.292Z" stroke="#7E7BB3" stroke-width="1.5" stroke-linecap="round" stroke-linejoin="round"/>
<path d="M41.3335 279H39.8335L38.7085 282.333L36.4585 275.667L35.3335 279H33.8335" stroke="#7E7BB3" stroke-width="1.5" stroke-linecap="round" stroke-linejoin="round"/>
<path d="M64.28 284.5H65.575L66.366 282.141H70.671L71.469 284.5H72.764L69.39 274.42H67.654L64.28 284.5ZM66.758 280.972L68.508 275.729L70.279 280.972H66.758ZM77.4821 284.71C78.2614 284.71 78.9288 284.523 79.4841 284.15C80.0394 283.777 80.4501 283.238 80.7161 282.533L79.4561 282.204C79.1061 283.086 78.4481 283.527 77.4821 283.527C76.7308 283.527 76.1638 283.27 75.7811 282.757C75.4031 282.244 75.2094 281.565 75.2001 280.72C75.2094 279.899 75.3984 279.227 75.7671 278.704C76.1358 278.177 76.7074 277.913 77.4821 277.913C77.9394 277.913 78.3478 278.034 78.7071 278.277C79.0664 278.52 79.3254 278.86 79.4841 279.299L80.7161 278.928C80.5154 278.247 80.1258 277.71 79.5471 277.318C78.9731 276.926 78.2894 276.73 77.4961 276.73C76.7401 276.73 76.0914 276.9 75.5501 277.241C75.0134 277.577 74.6028 278.044 74.3181 278.641C74.0334 279.238 73.8864 279.931 73.8771 280.72C73.8864 281.49 74.0311 282.176 74.3111 282.778C74.5911 283.38 74.9971 283.854 75.5291 284.199C76.0658 284.54 76.7168 284.71 77.4821 284.71ZM86.6458 284.5V283.429C86.1278 283.508 85.6844 283.522 85.3158 283.471C84.9518 283.42 84.6858 283.245 84.5178 282.946C84.4291 282.787 84.3801 282.601 84.3708 282.386C84.3661 282.167 84.3638 281.901 84.3638 281.588V277.969H86.6458V276.94H84.3638V274.84H83.1178V276.94H81.5848V277.969H83.1178V281.644C83.1178 282.036 83.1224 282.386 83.1318 282.694C83.1458 282.997 83.2274 283.296 83.3768 283.59C83.5541 283.931 83.8131 284.183 84.1538 284.346C84.4944 284.505 84.8818 284.591 85.3158 284.605C85.7544 284.624 86.1978 284.589 86.6458 284.5ZM88.6006 275.603H89.8466V274.315H88.6006V275.603ZM88.6006 284.5H89.8466V276.94H88.6006V284.5ZM94.271 284.5H95.545L98.289 276.94H97.022L94.908 282.911L92.787 276.94H91.527L94.271 284.5ZM99.9751 275.603H101.221V274.315H99.9751V275.603ZM99.9751 284.5H101.221V276.94H99.9751V284.5ZM107.822 284.5V283.429C107.304 283.508 106.861 283.522 106.492 283.471C106.128 283.42 105.862 283.245 105.694 282.946C105.606 282.787 105.557 282.601 105.547 282.386C105.543 282.167 105.54 281.901 105.54 281.588V277.969H107.822V276.94H105.54V274.84H104.294V276.94H102.761V277.969H104.294V281.644C104.294 282.036 104.299 282.386 104.308 282.694C104.322 282.997 104.404 283.296 104.553 283.59C104.731 283.931 104.99 284.183 105.33 284.346C105.671 284.505 106.058 284.591 106.492 284.605C106.931 284.624 107.374 284.589 107.822 284.5ZM110.482 287.86H111.693L115.809 276.94H114.542L112.33 282.89L109.971 276.94H108.662L111.728 284.472L110.482 287.86Z" fill="white"/>
<path d="M42.9062 338.081C44.0687 337.917 44.9637 336.921 44.9662 335.713C44.9662 334.523 44.0987 333.537 42.9612 333.35" stroke="#7E7BB3" stroke-width="1.5" stroke-linecap="round" stroke-linejoin="round"/>
<path d="M44.4404 340.875C45.5663 341.044 46.3521 341.438 46.3521 342.25C46.3521 342.809 45.9821 343.173 45.3838 343.401" stroke="#7E7BB3" stroke-width="1.5" stroke-linecap="round" stroke-linejoin="round"/>
<path fill-rule="evenodd" clip-rule="evenodd" d="M37.9053 341.22C35.227 341.22 32.9395 341.626 32.9395 343.247C32.9395 344.867 35.2128 345.284 37.9053 345.284C40.5836 345.284 42.8703 344.882 42.8703 343.261C42.8703 341.639 40.5978 341.22 37.9053 341.22Z" stroke="#7E7BB3" stroke-width="1.5" stroke-linecap="round" stroke-linejoin="round"/>
<path fill-rule="evenodd" clip-rule="evenodd" d="M37.9052 338.907C39.6627 338.907 41.0877 337.482 41.0877 335.724C41.0877 333.967 39.6627 332.542 37.9052 332.542C36.1477 332.542 34.7227 333.967 34.7227 335.724C34.716 337.476 36.1302 338.901 37.8818 338.907H37.9052Z" stroke="#7E7BB3" stroke-width="1.5" stroke-linecap="round" stroke-linejoin="round"/>
<path d="M32.9037 338.081C31.7404 337.917 30.8462 336.921 30.8438 335.713C30.8438 334.523 31.7112 333.537 32.8487 333.35" stroke="#7E7BB3" stroke-width="1.5" stroke-linecap="round" stroke-linejoin="round"/>
<path d="M31.3697 340.875C30.2438 341.044 29.458 341.438 29.458 342.25C29.458 342.809 29.828 343.173 30.4263 343.401" stroke="#7E7BB3" stroke-width="1.5" stroke-linecap="round" stroke-linejoin="round"/>
<path d="M67.577 344.5H68.823V335.603H72.26V334.42H64.14V335.603H67.577V344.5ZM75.8094 344.71C76.5421 344.71 77.2024 344.528 77.7904 344.164C78.3784 343.795 78.8218 343.277 79.1204 342.61L77.9234 342.197C77.4894 343.084 76.7661 343.527 75.7534 343.527C75.0581 343.527 74.5121 343.315 74.1154 342.89C73.7234 342.461 73.5018 341.854 73.4504 341.07H79.2464C79.2838 340.174 79.1671 339.402 78.8964 338.753C78.6304 338.104 78.2291 337.605 77.6924 337.255C77.1604 336.905 76.5141 336.73 75.7534 336.73C75.0208 336.73 74.3814 336.896 73.8354 337.227C73.2894 337.554 72.8648 338.02 72.5614 338.627C72.2628 339.229 72.1134 339.943 72.1134 340.769C72.1134 341.558 72.2651 342.248 72.5684 342.841C72.8764 343.429 73.3081 343.889 73.8634 344.22C74.4188 344.547 75.0674 344.71 75.8094 344.71ZM75.7954 337.85C77.0788 337.85 77.7974 338.59 77.9514 340.069H73.4714C73.5601 339.35 73.8004 338.802 74.1924 338.424C74.5844 338.041 75.1188 337.85 75.7954 337.85ZM83.0972 344.71C84.3572 344.71 85.2905 344.248 85.8972 343.324V344.5H87.0032V339.824C87.0032 339.525 86.9892 339.241 86.9612 338.97C86.9332 338.695 86.8655 338.44 86.7582 338.207C86.5435 337.712 86.1889 337.344 85.6942 337.101C85.1995 336.854 84.6115 336.73 83.9302 336.73C83.0762 336.73 82.3855 336.919 81.8582 337.297C81.3355 337.675 80.9855 338.195 80.8082 338.858L81.9912 339.215C82.1265 338.753 82.3669 338.417 82.7122 338.207C83.0575 337.997 83.4589 337.892 83.9162 337.892C84.5695 337.892 85.0385 338.039 85.3232 338.333C85.6125 338.622 85.7642 339.068 85.7782 339.67C85.2182 339.749 84.6302 339.833 84.0142 339.922C83.4029 340.006 82.8592 340.111 82.3832 340.237C81.8092 340.405 81.3565 340.669 81.0252 341.028C80.6939 341.383 80.5282 341.859 80.5282 342.456C80.5282 342.862 80.6239 343.235 80.8152 343.576C81.0112 343.917 81.2982 344.192 81.6762 344.402C82.0589 344.607 82.5325 344.71 83.0972 344.71ZM83.2862 343.667C82.7495 343.667 82.3622 343.543 82.1242 343.296C81.8862 343.044 81.7672 342.762 81.7672 342.449C81.7672 342.094 81.8839 341.824 82.1172 341.637C82.3552 341.446 82.6305 341.301 82.9432 341.203C83.3119 341.1 83.7412 341.014 84.2312 340.944C84.7212 340.874 85.2322 340.804 85.7642 340.734C85.7642 340.907 85.7549 341.103 85.7362 341.322C85.7222 341.541 85.6895 341.742 85.6382 341.924C85.5495 342.391 85.3022 342.799 84.8962 343.149C84.4949 343.494 83.9582 343.667 83.2862 343.667ZM89.0962 344.5H90.3492V339.698C90.3492 339.143 90.4985 338.697 90.7972 338.361C91.1005 338.025 91.4995 337.857 91.9942 337.857C92.4889 337.857 92.8855 338.023 93.1842 338.354C93.4829 338.685 93.6322 339.138 93.6322 339.712L93.6252 344.5H94.8642L94.8712 339.698C94.8712 339.273 94.9505 338.926 95.1092 338.655C95.2679 338.384 95.4732 338.184 95.7252 338.053C95.9772 337.922 96.2432 337.857 96.5232 337.857C96.9992 337.857 97.3889 338.018 97.6922 338.34C97.9955 338.657 98.1472 339.098 98.1472 339.663L98.1402 344.5H99.3862L99.3932 339.39C99.3932 338.583 99.1669 337.941 98.7142 337.465C98.2615 336.984 97.6409 336.744 96.8522 336.744C96.3529 336.744 95.9025 336.856 95.5012 337.08C95.0999 337.299 94.7872 337.603 94.5632 337.99C94.3579 337.593 94.0662 337.288 93.6882 337.073C93.3102 336.854 92.8669 336.744 92.3582 336.744C91.9055 336.744 91.4925 336.835 91.1192 337.017C90.7505 337.194 90.4472 337.437 90.2092 337.745V336.94H89.0962V344.5Z" fill="white"/>
<path fill-rule="evenodd" clip-rule="evenodd" d="M43.8926 404.892C41.3458 407.439 37.5746 407.989 34.4885 406.562C34.0329 406.378 33.6594 406.23 33.3043 406.23C32.3152 406.236 31.0841 407.195 30.4443 406.556C29.8045 405.916 30.7642 404.684 30.7642 403.689C30.7642 403.334 30.6219 402.967 30.4384 402.51C29.0105 399.425 29.5616 395.652 32.1084 393.106C35.3595 389.854 40.6415 389.854 43.8926 393.105C47.1496 396.362 47.1438 401.64 43.8926 404.892Z" stroke="#7E7BB3" stroke-width="1.5" stroke-linecap="round" stroke-linejoin="round"/>
<path d="M41.2825 399.344H41.29" stroke="#7E7BB3" stroke-width="2" stroke-linecap="round" stroke-linejoin="round"/>
<path d="M37.9417 399.344H37.9492" stroke="#7E7BB3" stroke-width="2" stroke-linecap="round" stroke-linejoin="round"/>
<path d="M34.6009 399.344H34.6084" stroke="#7E7BB3" stroke-width="2" stroke-linecap="round" stroke-linejoin="round"/>
<path d="M64.98 404.5H66.163V397.157L69.586 404.5H70.251L73.674 397.157V404.493H74.857V394.42H73.709L69.922 402.449L66.114 394.42H64.98V404.5ZM80.3758 404.71C81.1085 404.71 81.7688 404.528 82.3568 404.164C82.9448 403.795 83.3882 403.277 83.6868 402.61L82.4898 402.197C82.0558 403.084 81.3325 403.527 80.3198 403.527C79.6245 403.527 79.0785 403.315 78.6818 402.89C78.2898 402.461 78.0682 401.854 78.0168 401.07H83.8128C83.8502 400.174 83.7335 399.402 83.4628 398.753C83.1968 398.104 82.7955 397.605 82.2588 397.255C81.7268 396.905 81.0805 396.73 80.3198 396.73C79.5872 396.73 78.9478 396.896 78.4018 397.227C77.8558 397.554 77.4312 398.02 77.1278 398.627C76.8292 399.229 76.6798 399.943 76.6798 400.769C76.6798 401.558 76.8315 402.248 77.1348 402.841C77.4428 403.429 77.8745 403.889 78.4298 404.22C78.9852 404.547 79.6338 404.71 80.3758 404.71ZM80.3618 397.85C81.6452 397.85 82.3638 398.59 82.5178 400.069H78.0378C78.1265 399.35 78.3668 398.802 78.7588 398.424C79.1508 398.041 79.6852 397.85 80.3618 397.85ZM88.5073 404.703C89.45 404.703 90.1897 404.495 90.7263 404.08C91.263 403.665 91.5313 403.091 91.5313 402.358C91.5313 401.966 91.4497 401.637 91.2863 401.371C91.123 401.1 90.8477 400.867 90.4603 400.671C90.0777 400.47 89.5527 400.286 88.8853 400.118C88.2927 399.969 87.84 399.836 87.5273 399.719C87.2193 399.602 87.007 399.479 86.8903 399.348C86.7783 399.217 86.7223 399.061 86.7223 398.879C86.7223 398.557 86.874 398.3 87.1773 398.109C87.4853 397.918 87.8843 397.829 88.3743 397.843C88.8877 397.857 89.31 397.983 89.6413 398.221C89.9727 398.454 90.1687 398.772 90.2293 399.173L91.5033 398.942C91.424 398.275 91.0973 397.74 90.5233 397.339C89.954 396.933 89.2377 396.73 88.3743 396.73C87.5017 396.73 86.7993 396.933 86.2673 397.339C85.7353 397.74 85.4693 398.275 85.4693 398.942C85.4693 399.301 85.5487 399.607 85.7073 399.859C85.8707 400.111 86.1437 400.333 86.5263 400.524C86.9137 400.715 87.441 400.9 88.1083 401.077C88.7243 401.24 89.184 401.383 89.4873 401.504C89.7953 401.621 89.9983 401.744 90.0963 401.875C90.1943 402.006 90.2433 402.178 90.2433 402.393C90.2433 402.762 90.094 403.053 89.7953 403.268C89.5013 403.483 89.0977 403.59 88.5843 403.59C88.0383 403.59 87.581 403.471 87.2123 403.233C86.8437 402.99 86.608 402.664 86.5053 402.253L85.2313 402.456C85.362 403.165 85.7143 403.718 86.2883 404.115C86.867 404.507 87.6067 404.703 88.5073 404.703ZM96.2112 404.703C97.1538 404.703 97.8935 404.495 98.4302 404.08C98.9668 403.665 99.2352 403.091 99.2352 402.358C99.2352 401.966 99.1535 401.637 98.9902 401.371C98.8268 401.1 98.5515 400.867 98.1642 400.671C97.7815 400.47 97.2565 400.286 96.5892 400.118C95.9965 399.969 95.5438 399.836 95.2312 399.719C94.9232 399.602 94.7108 399.479 94.5942 399.348C94.4822 399.217 94.4262 399.061 94.4262 398.879C94.4262 398.557 94.5778 398.3 94.8812 398.109C95.1892 397.918 95.5882 397.829 96.0782 397.843C96.5915 397.857 97.0138 397.983 97.3452 398.221C97.6765 398.454 97.8725 398.772 97.9332 399.173L99.2072 398.942C99.1278 398.275 98.8012 397.74 98.2272 397.339C97.6578 396.933 96.9415 396.73 96.0782 396.73C95.2055 396.73 94.5032 396.933 93.9712 397.339C93.4392 397.74 93.1732 398.275 93.1732 398.942C93.1732 399.301 93.2525 399.607 93.4112 399.859C93.5745 400.111 93.8475 400.333 94.2302 400.524C94.6175 400.715 95.1448 400.9 95.8122 401.077C96.4282 401.24 96.8878 401.383 97.1912 401.504C97.4992 401.621 97.7022 401.744 97.8002 401.875C97.8982 402.006 97.9472 402.178 97.9472 402.393C97.9472 402.762 97.7978 403.053 97.4992 403.268C97.2052 403.483 96.8015 403.59 96.2882 403.59C95.7422 403.59 95.2848 403.471 94.9162 403.233C94.5475 402.99 94.3118 402.664 94.2092 402.253L92.9352 402.456C93.0658 403.165 93.4182 403.718 93.9922 404.115C94.5708 404.507 95.3105 404.703 96.2112 404.703ZM103.208 404.71C104.468 404.71 105.401 404.248 106.008 403.324V404.5H107.114V399.824C107.114 399.525 107.1 399.241 107.072 398.97C107.044 398.695 106.976 398.44 106.869 398.207C106.654 397.712 106.3 397.344 105.805 397.101C105.31 396.854 104.722 396.73 104.041 396.73C103.187 396.73 102.496 396.919 101.969 397.297C101.446 397.675 101.096 398.195 100.919 398.858L102.102 399.215C102.237 398.753 102.478 398.417 102.823 398.207C103.168 397.997 103.57 397.892 104.027 397.892C104.68 397.892 105.149 398.039 105.434 398.333C105.723 398.622 105.875 399.068 105.889 399.67C105.329 399.749 104.741 399.833 104.125 399.922C103.514 400.006 102.97 400.111 102.494 400.237C101.92 400.405 101.467 400.669 101.136 401.028C100.805 401.383 100.639 401.859 100.639 402.456C100.639 402.862 100.735 403.235 100.926 403.576C101.122 403.917 101.409 404.192 101.787 404.402C102.17 404.607 102.643 404.71 103.208 404.71ZM103.397 403.667C102.86 403.667 102.473 403.543 102.235 403.296C101.997 403.044 101.878 402.762 101.878 402.449C101.878 402.094 101.995 401.824 102.228 401.637C102.466 401.446 102.741 401.301 103.054 401.203C103.423 401.1 103.852 401.014 104.342 400.944C104.832 400.874 105.343 400.804 105.875 400.734C105.875 400.907 105.866 401.103 105.847 401.322C105.833 401.541 105.8 401.742 105.749 401.924C105.66 402.391 105.413 402.799 105.007 403.149C104.606 403.494 104.069 403.667 103.397 403.667ZM112.182 404.71C112.649 404.71 113.066 404.631 113.435 404.472C113.808 404.313 114.13 404.092 114.401 403.807V404.535C114.415 406.089 113.708 406.866 112.28 406.866C111.911 406.866 111.557 406.782 111.216 406.614C110.875 406.446 110.612 406.178 110.425 405.809L109.284 406.411C109.601 406.976 110.031 407.393 110.572 407.664C111.113 407.935 111.68 408.07 112.273 408.07C113.178 408.07 113.916 407.876 114.485 407.489C115.059 407.106 115.418 406.514 115.563 405.711C115.6 405.524 115.624 405.335 115.633 405.144C115.647 404.957 115.654 404.759 115.654 404.549V396.94H114.548V397.787C114.273 397.456 113.937 397.197 113.54 397.01C113.143 396.823 112.688 396.73 112.175 396.73C111.475 396.73 110.873 396.905 110.369 397.255C109.865 397.6 109.475 398.074 109.2 398.676C108.929 399.278 108.794 399.957 108.794 400.713C108.794 401.469 108.929 402.148 109.2 402.75C109.471 403.352 109.858 403.83 110.362 404.185C110.871 404.535 111.477 404.71 112.182 404.71ZM112.336 403.569C111.841 403.569 111.428 403.443 111.097 403.191C110.77 402.939 110.525 402.598 110.362 402.169C110.199 401.735 110.117 401.25 110.117 400.713C110.117 400.181 110.196 399.7 110.355 399.271C110.518 398.842 110.766 398.501 111.097 398.249C111.433 397.997 111.858 397.871 112.371 397.871C113.108 397.871 113.654 398.137 114.009 398.669C114.368 399.196 114.548 399.878 114.548 400.713C114.548 401.544 114.371 402.227 114.016 402.764C113.661 403.301 113.101 403.569 112.336 403.569ZM121.165 404.71C121.897 404.71 122.558 404.528 123.146 404.164C123.734 403.795 124.177 403.277 124.476 402.61L123.279 402.197C122.845 403.084 122.121 403.527 121.109 403.527C120.413 403.527 119.867 403.315 119.471 402.89C119.079 402.461 118.857 401.854 118.806 401.07H124.602C124.639 400.174 124.522 399.402 124.252 398.753C123.986 398.104 123.584 397.605 123.048 397.255C122.516 396.905 121.869 396.73 121.109 396.73C120.376 396.73 119.737 396.896 119.191 397.227C118.645 397.554 118.22 398.02 117.917 398.627C117.618 399.229 117.469 399.943 117.469 400.769C117.469 401.558 117.62 402.248 117.924 402.841C118.232 403.429 118.663 403.889 119.219 404.22C119.774 404.547 120.423 404.71 121.165 404.71ZM121.151 397.85C122.434 397.85 123.153 398.59 123.307 400.069H118.827C118.915 399.35 119.156 398.802 119.548 398.424C119.94 398.041 120.474 397.85 121.151 397.85ZM129.296 404.703C130.239 404.703 130.978 404.495 131.515 404.08C132.052 403.665 132.32 403.091 132.32 402.358C132.32 401.966 132.238 401.637 132.075 401.371C131.912 401.1 131.636 400.867 131.249 400.671C130.866 400.47 130.341 400.286 129.674 400.118C129.081 399.969 128.629 399.836 128.316 399.719C128.008 399.602 127.796 399.479 127.679 399.348C127.567 399.217 127.511 399.061 127.511 398.879C127.511 398.557 127.663 398.3 127.966 398.109C128.274 397.918 128.673 397.829 129.163 397.843C129.676 397.857 130.099 397.983 130.43 398.221C130.761 398.454 130.957 398.772 131.018 399.173L132.292 398.942C132.213 398.275 131.886 397.74 131.312 397.339C130.743 396.933 130.026 396.73 129.163 396.73C128.29 396.73 127.588 396.933 127.056 397.339C126.524 397.74 126.258 398.275 126.258 398.942C126.258 399.301 126.337 399.607 126.496 399.859C126.659 400.111 126.932 400.333 127.315 400.524C127.702 400.715 128.23 400.9 128.897 401.077C129.513 401.24 129.973 401.383 130.276 401.504C130.584 401.621 130.787 401.744 130.885 401.875C130.983 402.006 131.032 402.178 131.032 402.393C131.032 402.762 130.883 403.053 130.584 403.268C130.29 403.483 129.886 403.59 129.373 403.59C128.827 403.59 128.37 403.471 128.001 403.233C127.632 402.99 127.397 402.664 127.294 402.253L126.02 402.456C126.151 403.165 126.503 403.718 127.077 404.115C127.656 404.507 128.395 404.703 129.296 404.703Z" fill="white"/>
<path fill-rule="evenodd" clip-rule="evenodd" d="M45.3387 455.353L44.82 454.453C44.3812 453.691 43.4087 453.429 42.6461 453.866V453.866C42.283 454.079 41.8499 454.14 41.4421 454.034C41.0342 453.928 40.6853 453.665 40.4722 453.301C40.3351 453.07 40.2614 452.807 40.2586 452.538V452.538C40.271 452.108 40.1085 451.69 39.8082 451.381C39.5078 451.072 39.0952 450.898 38.6644 450.898H37.6194C37.1973 450.898 36.7926 451.067 36.4948 451.366C36.197 451.665 36.0308 452.07 36.0328 452.493V452.493C36.0203 453.364 35.3102 454.064 34.4386 454.064C34.17 454.061 33.9068 453.987 33.6758 453.85V453.85C32.9132 453.413 31.9407 453.676 31.5019 454.438L30.9451 455.353C30.5068 456.114 30.766 457.085 31.5248 457.527V457.527C32.018 457.812 32.3219 458.338 32.3219 458.907C32.3219 459.477 32.018 460.003 31.5248 460.288V460.288C30.7669 460.727 30.5075 461.696 30.9451 462.454V462.454L31.4714 463.362C31.677 463.733 32.022 464.007 32.43 464.123C32.8379 464.239 33.2753 464.187 33.6453 463.98V463.98C34.009 463.768 34.4425 463.71 34.8492 463.818C35.256 463.927 35.6025 464.194 35.8116 464.56C35.9487 464.791 36.0224 465.054 36.0252 465.322V465.322C36.0252 466.203 36.7389 466.917 37.6194 466.917H38.6644C39.5419 466.917 40.2544 466.208 40.2586 465.33V465.33C40.2565 464.907 40.4239 464.5 40.7233 464.201C41.0227 463.901 41.4294 463.734 41.8528 463.736C42.1208 463.743 42.3828 463.816 42.6156 463.949V463.949C43.3762 464.388 44.3481 464.129 44.7895 463.37V463.37L45.3387 462.454C45.5513 462.09 45.6096 461.655 45.5008 461.247C45.392 460.839 45.125 460.491 44.759 460.28V460.28C44.3929 460.07 44.1259 459.722 44.0171 459.314C43.9083 458.906 43.9667 458.471 44.1793 458.107C44.3175 457.865 44.5176 457.665 44.759 457.527V457.527C45.5133 457.086 45.7718 456.119 45.3387 455.361V455.361V455.353Z" stroke="#7E7BB3" stroke-width="1.5" stroke-linecap="round" stroke-linejoin="round"/>
<circle cx="38.1455" cy="458.908" r="2.1968" stroke="#7E7BB3" stroke-width="1.5" stroke-linecap="round" stroke-linejoin="round"/>
<path d="M68.557 464.71C69.257 464.71 69.8917 464.593 70.461 464.36C71.0303 464.127 71.483 463.786 71.819 463.338C72.1597 462.885 72.33 462.335 72.33 461.686C72.33 461.201 72.2413 460.799 72.064 460.482C71.8867 460.16 71.6627 459.903 71.392 459.712C71.1213 459.516 70.8413 459.364 70.552 459.257C70.2673 459.15 70.0153 459.066 69.796 459.005L67.878 458.452C67.6307 458.382 67.3763 458.293 67.115 458.186C66.8537 458.074 66.6343 457.925 66.457 457.738C66.2843 457.547 66.198 457.297 66.198 456.989C66.198 456.676 66.2937 456.401 66.485 456.163C66.681 455.92 66.9447 455.731 67.276 455.596C67.612 455.461 67.9853 455.395 68.396 455.4C69.0353 455.405 69.593 455.587 70.069 455.946C70.5497 456.301 70.8413 456.784 70.944 457.395L72.267 457.164C72.0803 456.245 71.644 455.526 70.958 455.008C70.2767 454.485 69.4273 454.222 68.41 454.217C67.7427 454.212 67.1407 454.322 66.604 454.546C66.072 454.77 65.652 455.094 65.344 455.519C65.036 455.939 64.882 456.448 64.882 457.045C64.882 457.54 64.9847 457.95 65.19 458.277C65.4 458.604 65.6707 458.865 66.002 459.061C66.338 459.252 66.6927 459.404 67.066 459.516L69.635 460.279C69.9943 460.386 70.3187 460.55 70.608 460.769C70.8973 460.984 71.042 461.313 71.042 461.756C71.042 462.12 70.9323 462.435 70.713 462.701C70.4983 462.967 70.209 463.172 69.845 463.317C69.481 463.457 69.0727 463.527 68.62 463.527C67.9153 463.527 67.3063 463.35 66.793 462.995C66.2797 462.636 65.9413 462.139 65.778 461.504L64.49 461.707C64.602 462.323 64.8423 462.857 65.211 463.31C65.5843 463.758 66.0557 464.103 66.625 464.346C67.199 464.589 67.843 464.71 68.557 464.71ZM77.3544 464.71C78.087 464.71 78.7474 464.528 79.3354 464.164C79.9234 463.795 80.3667 463.277 80.6654 462.61L79.4684 462.197C79.0344 463.084 78.311 463.527 77.2984 463.527C76.603 463.527 76.057 463.315 75.6604 462.89C75.2684 462.461 75.0467 461.854 74.9954 461.07H80.7914C80.8287 460.174 80.712 459.402 80.4414 458.753C80.1754 458.104 79.774 457.605 79.2374 457.255C78.7054 456.905 78.059 456.73 77.2984 456.73C76.5657 456.73 75.9264 456.896 75.3804 457.227C74.8344 457.554 74.4097 458.02 74.1064 458.627C73.8077 459.229 73.6584 459.943 73.6584 460.769C73.6584 461.558 73.81 462.248 74.1134 462.841C74.4214 463.429 74.853 463.889 75.4084 464.22C75.9637 464.547 76.6124 464.71 77.3544 464.71ZM77.3404 457.85C78.6237 457.85 79.3424 458.59 79.4964 460.069H75.0164C75.105 459.35 75.3454 458.802 75.7374 458.424C76.1294 458.041 76.6637 457.85 77.3404 457.85ZM86.8508 464.5V463.429C86.3328 463.508 85.8895 463.522 85.5208 463.471C85.1568 463.42 84.8908 463.245 84.7228 462.946C84.6342 462.787 84.5852 462.601 84.5758 462.386C84.5712 462.167 84.5688 461.901 84.5688 461.588V457.969H86.8508V456.94H84.5688V454.84H83.3228V456.94H81.7898V457.969H83.3228V461.644C83.3228 462.036 83.3275 462.386 83.3368 462.694C83.3508 462.997 83.4325 463.296 83.5818 463.59C83.7592 463.931 84.0182 464.183 84.3588 464.346C84.6995 464.505 85.0868 464.591 85.5208 464.605C85.9595 464.624 86.4028 464.589 86.8508 464.5ZM91.7718 464.5V463.429C91.2538 463.508 90.8105 463.522 90.4418 463.471C90.0778 463.42 89.8118 463.245 89.6438 462.946C89.5552 462.787 89.5062 462.601 89.4968 462.386C89.4922 462.167 89.4898 461.901 89.4898 461.588V457.969H91.7718V456.94H89.4898V454.84H88.2438V456.94H86.7108V457.969H88.2438V461.644C88.2438 462.036 88.2485 462.386 88.2578 462.694C88.2718 462.997 88.3535 463.296 88.5028 463.59C88.6802 463.931 88.9392 464.183 89.2798 464.346C89.6205 464.505 90.0078 464.591 90.4418 464.605C90.8805 464.624 91.3238 464.589 91.7718 464.5ZM93.7276 455.603H94.9736V454.315H93.7276V455.603ZM93.7276 464.5H94.9736V456.94H93.7276V464.5ZM97.3469 464.5H98.6069V460.517C98.6069 459.64 98.7959 458.989 99.1739 458.564C99.5566 458.139 100.061 457.927 100.686 457.927C101.218 457.927 101.633 458.06 101.932 458.326C102.231 458.592 102.438 458.937 102.555 459.362C102.676 459.787 102.737 460.237 102.737 460.713V464.5H103.997V460.321C103.997 459.962 103.953 459.577 103.864 459.166C103.78 458.751 103.626 458.361 103.402 457.997C103.183 457.628 102.877 457.327 102.485 457.094C102.098 456.861 101.598 456.744 100.987 456.744C99.8856 456.744 99.0456 457.134 98.4669 457.913V456.94H97.3469V464.5ZM109.065 464.71C109.531 464.71 109.949 464.631 110.318 464.472C110.691 464.313 111.013 464.092 111.284 463.807V464.535C111.298 466.089 110.591 466.866 109.163 466.866C108.794 466.866 108.439 466.782 108.099 466.614C107.758 466.446 107.494 466.178 107.308 465.809L106.167 466.411C106.484 466.976 106.913 467.393 107.455 467.664C107.996 467.935 108.563 468.07 109.156 468.07C110.061 468.07 110.798 467.876 111.368 467.489C111.942 467.106 112.301 466.514 112.446 465.711C112.483 465.524 112.506 465.335 112.516 465.144C112.53 464.957 112.537 464.759 112.537 464.549V456.94H111.431V457.787C111.155 457.456 110.819 457.197 110.423 457.01C110.026 456.823 109.571 456.73 109.058 456.73C108.358 456.73 107.756 456.905 107.252 457.255C106.748 457.6 106.358 458.074 106.083 458.676C105.812 459.278 105.677 459.957 105.677 460.713C105.677 461.469 105.812 462.148 106.083 462.75C106.353 463.352 106.741 463.83 107.245 464.185C107.753 464.535 108.36 464.71 109.065 464.71ZM109.219 463.569C108.724 463.569 108.311 463.443 107.98 463.191C107.653 462.939 107.408 462.598 107.245 462.169C107.081 461.735 107 461.25 107 460.713C107 460.181 107.079 459.7 107.238 459.271C107.401 458.842 107.648 458.501 107.98 458.249C108.316 457.997 108.74 457.871 109.254 457.871C109.991 457.871 110.537 458.137 110.892 458.669C111.251 459.196 111.431 459.878 111.431 460.713C111.431 461.544 111.253 462.227 110.899 462.764C110.544 463.301 109.984 463.569 109.219 463.569ZM117.627 464.703C118.57 464.703 119.31 464.495 119.846 464.08C120.383 463.665 120.651 463.091 120.651 462.358C120.651 461.966 120.57 461.637 120.406 461.371C120.243 461.1 119.968 460.867 119.58 460.671C119.198 460.47 118.673 460.286 118.005 460.118C117.413 459.969 116.96 459.836 116.647 459.719C116.339 459.602 116.127 459.479 116.01 459.348C115.898 459.217 115.842 459.061 115.842 458.879C115.842 458.557 115.994 458.3 116.297 458.109C116.605 457.918 117.004 457.829 117.494 457.843C118.008 457.857 118.43 457.983 118.761 458.221C119.093 458.454 119.289 458.772 119.349 459.173L120.623 458.942C120.544 458.275 120.217 457.74 119.643 457.339C119.074 456.933 118.358 456.73 117.494 456.73C116.622 456.73 115.919 456.933 115.387 457.339C114.855 457.74 114.589 458.275 114.589 458.942C114.589 459.301 114.669 459.607 114.827 459.859C114.991 460.111 115.264 460.333 115.646 460.524C116.034 460.715 116.561 460.9 117.228 461.077C117.844 461.24 118.304 461.383 118.607 461.504C118.915 461.621 119.118 461.744 119.216 461.875C119.314 462.006 119.363 462.178 119.363 462.393C119.363 462.762 119.214 463.053 118.915 463.268C118.621 463.483 118.218 463.59 117.704 463.59C117.158 463.59 116.701 463.471 116.332 463.233C115.964 462.99 115.728 462.664 115.625 462.253L114.351 462.456C114.482 463.165 114.834 463.718 115.408 464.115C115.987 464.507 116.727 464.703 117.627 464.703Z" fill="white"/>
<path d="M19.576 800H21L23.592 790.968L26.184 800H27.608L30.944 788.48H29.448L26.896 797.592L24.336 788.48L22.84 788.488L20.288 797.592L17.728 788.48H16.24L19.576 800ZM35.3544 800.24C36.213 800.24 36.9517 800.048 37.5704 799.664C38.1944 799.28 38.6744 798.744 39.0104 798.056C39.3517 797.368 39.5224 796.573 39.5224 795.672C39.5224 794.781 39.3544 793.995 39.0184 793.312C38.6877 792.624 38.2104 792.088 37.5864 791.704C36.9624 791.315 36.2184 791.12 35.3544 791.12C34.5117 791.12 33.7784 791.312 33.1544 791.696C32.5304 792.075 32.0477 792.605 31.7064 793.288C31.365 793.971 31.1944 794.765 31.1944 795.672C31.1944 796.563 31.3597 797.352 31.6904 798.04C32.0264 798.728 32.5064 799.267 33.1304 799.656C33.7544 800.045 34.4957 800.24 35.3544 800.24ZM35.3544 798.888C34.485 798.888 33.8264 798.597 33.3784 798.016C32.9304 797.429 32.7064 796.648 32.7064 795.672C32.7064 794.728 32.9224 793.96 33.3544 793.368C33.7864 792.771 34.453 792.472 35.3544 792.472C36.2397 792.472 36.9037 792.763 37.3464 793.344C37.789 793.925 38.0104 794.701 38.0104 795.672C38.0104 796.621 37.789 797.395 37.3464 797.992C36.909 798.589 36.245 798.888 35.3544 798.888ZM41.6037 800H43.0357V795.664C43.0357 795.152 43.1051 794.659 43.2437 794.184C43.3824 793.709 43.6624 793.323 44.0837 793.024C44.3824 792.805 44.7104 792.677 45.0677 792.64C45.4304 792.603 45.7611 792.621 46.0597 792.696V791.36C45.6757 791.275 45.2544 791.275 44.7957 791.36C44.3371 791.445 43.9424 791.621 43.6117 791.888C43.3237 792.091 43.0784 792.371 42.8757 792.728V791.36H41.6037V800ZM47.8845 800H49.3325V795.84L53.2605 800H55.2525L50.9885 795.68L54.8045 791.36H52.9565L49.3325 795.52V788.48H47.8925L47.8845 800ZM59.4765 800.232C60.5538 800.232 61.3992 799.995 62.0125 799.52C62.6258 799.045 62.9325 798.389 62.9325 797.552C62.9325 797.104 62.8392 796.728 62.6525 796.424C62.4658 796.115 62.1512 795.848 61.7085 795.624C61.2712 795.395 60.6712 795.184 59.9085 794.992C59.2312 794.821 58.7138 794.669 58.3565 794.536C58.0045 794.403 57.7618 794.261 57.6285 794.112C57.5005 793.963 57.4365 793.784 57.4365 793.576C57.4365 793.208 57.6098 792.915 57.9565 792.696C58.3085 792.477 58.7645 792.376 59.3245 792.392C59.9112 792.408 60.3938 792.552 60.7725 792.824C61.1512 793.091 61.3752 793.453 61.4445 793.912L62.9005 793.648C62.8098 792.885 62.4365 792.275 61.7805 791.816C61.1298 791.352 60.3112 791.12 59.3245 791.12C58.3272 791.12 57.5245 791.352 56.9165 791.816C56.3085 792.275 56.0045 792.885 56.0045 793.648C56.0045 794.059 56.0952 794.408 56.2765 794.696C56.4632 794.984 56.7752 795.237 57.2125 795.456C57.6552 795.675 58.2578 795.885 59.0205 796.088C59.7245 796.275 60.2498 796.437 60.5965 796.576C60.9485 796.709 61.1805 796.851 61.2925 797C61.4045 797.149 61.4605 797.347 61.4605 797.592C61.4605 798.013 61.2898 798.347 60.9485 798.592C60.6125 798.837 60.1512 798.96 59.5645 798.96C58.9405 798.96 58.4178 798.824 57.9965 798.552C57.5752 798.275 57.3058 797.901 57.1885 797.432L55.7325 797.664C55.8818 798.475 56.2845 799.107 56.9405 799.56C57.6018 800.008 58.4472 800.232 59.4765 800.232ZM65.0089 803.84H66.4409V799.2C66.7502 799.525 67.1155 799.781 67.5369 799.968C67.9635 800.149 68.4462 800.24 68.9849 800.24C69.7902 800.24 70.4809 800.04 71.0569 799.64C71.6382 799.235 72.0835 798.688 72.3929 798C72.7022 797.312 72.8569 796.536 72.8569 795.672C72.8569 794.808 72.7022 794.032 72.3929 793.344C72.0835 792.656 71.6382 792.115 71.0569 791.72C70.4809 791.32 69.7929 791.12 68.9929 791.12C68.4062 791.12 67.8862 791.227 67.4329 791.44C66.9795 791.653 66.5955 791.949 66.2809 792.328V791.36H65.0089V803.84ZM68.8089 798.936C67.9395 798.936 67.2995 798.629 66.8889 798.016C66.4835 797.403 66.2809 796.621 66.2809 795.672C66.2809 794.717 66.4835 793.939 66.8889 793.336C67.2995 792.728 67.9262 792.424 68.7689 792.424C69.3555 792.424 69.8382 792.568 70.2169 792.856C70.6009 793.144 70.8835 793.533 71.0649 794.024C71.2515 794.515 71.3449 795.064 71.3449 795.672C71.3449 796.285 71.2515 796.84 71.0649 797.336C70.8782 797.827 70.5982 798.216 70.2249 798.504C69.8515 798.792 69.3795 798.936 68.8089 798.936ZM77.3866 800.24C78.8266 800.24 79.8933 799.712 80.5866 798.656V800H81.8506V794.656C81.8506 794.315 81.8346 793.989 81.8026 793.68C81.7706 793.365 81.6933 793.075 81.5706 792.808C81.3253 792.243 80.92 791.821 80.3546 791.544C79.7893 791.261 79.1173 791.12 78.3386 791.12C77.3626 791.12 76.5733 791.336 75.9706 791.768C75.3733 792.2 74.9733 792.795 74.7706 793.552L76.1226 793.96C76.2773 793.432 76.552 793.048 76.9466 792.808C77.3413 792.568 77.8 792.448 78.3226 792.448C79.0693 792.448 79.6053 792.616 79.9306 792.952C80.2613 793.283 80.4346 793.792 80.4506 794.48C79.8106 794.571 79.1386 794.667 78.4346 794.768C77.736 794.864 77.1146 794.984 76.5706 795.128C75.9146 795.32 75.3973 795.621 75.0186 796.032C74.64 796.437 74.4506 796.981 74.4506 797.664C74.4506 798.128 74.56 798.555 74.7786 798.944C75.0026 799.333 75.3306 799.648 75.7626 799.888C76.2 800.123 76.7413 800.24 77.3866 800.24ZM77.6026 799.048C76.9893 799.048 76.5466 798.907 76.2746 798.624C76.0026 798.336 75.8666 798.013 75.8666 797.656C75.8666 797.251 76 796.941 76.2666 796.728C76.5386 796.509 76.8533 796.344 77.2106 796.232C77.632 796.115 78.1226 796.016 78.6826 795.936C79.2426 795.856 79.8266 795.776 80.4346 795.696C80.4346 795.893 80.424 796.117 80.4026 796.368C80.3866 796.619 80.3493 796.848 80.2906 797.056C80.1893 797.589 79.9066 798.056 79.4426 798.456C78.984 798.851 78.3706 799.048 77.6026 799.048ZM87.8906 800.24C88.7813 800.24 89.544 800.027 90.1786 799.6C90.8133 799.173 91.2826 798.557 91.5866 797.752L90.1466 797.376C89.7466 798.384 88.9946 798.888 87.8906 798.888C87.032 798.888 86.384 798.595 85.9466 798.008C85.5146 797.421 85.2933 796.645 85.2826 795.68C85.2933 794.741 85.5093 793.973 85.9306 793.376C86.352 792.773 87.0053 792.472 87.8906 792.472C88.4133 792.472 88.88 792.611 89.2906 792.888C89.7013 793.165 89.9973 793.555 90.1786 794.056L91.5866 793.632C91.3573 792.853 90.912 792.24 90.2506 791.792C89.5946 791.344 88.8133 791.12 87.9066 791.12C87.0426 791.12 86.3013 791.315 85.6826 791.704C85.0693 792.088 84.6 792.621 84.2746 793.304C83.9493 793.987 83.7813 794.779 83.7706 795.68C83.7813 796.56 83.9466 797.344 84.2666 798.032C84.5866 798.72 85.0506 799.261 85.6586 799.656C86.272 800.045 87.016 800.24 87.8906 800.24ZM97.049 800.24C97.8863 800.24 98.641 800.032 99.313 799.616C99.985 799.195 100.492 798.603 100.833 797.84L99.465 797.368C98.969 798.381 98.1423 798.888 96.985 798.888C96.1903 798.888 95.5663 798.645 95.113 798.16C94.665 797.669 94.4117 796.976 94.353 796.08H100.977C101.02 795.056 100.886 794.173 100.577 793.432C100.273 792.691 99.8143 792.12 99.201 791.72C98.593 791.32 97.8543 791.12 96.985 791.12C96.1477 791.12 95.417 791.309 94.793 791.688C94.169 792.061 93.6837 792.595 93.337 793.288C92.9957 793.976 92.825 794.792 92.825 795.736C92.825 796.637 92.9983 797.427 93.345 798.104C93.697 798.776 94.1903 799.301 94.825 799.68C95.4597 800.053 96.201 800.24 97.049 800.24ZM97.033 792.4C98.4997 792.4 99.321 793.245 99.497 794.936H94.377C94.4783 794.115 94.753 793.488 95.201 793.056C95.649 792.619 96.2597 792.4 97.033 792.4Z" fill="white"/>
<rect x="16" y="822" width="218" height="48" rx="10" fill="#28246F"/>
<path d="M216 844L212 848L208 844" stroke="#9D9FBB" stroke-width="1.5" stroke-linecap="round" stroke-linejoin="round"/>
<circle cx="38" cy="846" r="12" fill="#AF20C7"/>
<path d="M67.296 852.24C68.0907 852.24 68.8213 852.107 69.488 851.84C70.16 851.573 70.6987 851.179 71.104 850.656C71.5093 850.133 71.712 849.485 71.712 848.712C71.712 848.152 71.608 847.688 71.4 847.32C71.192 846.947 70.928 846.648 70.608 846.424C70.2933 846.2 69.9653 846.027 69.624 845.904C69.288 845.776 68.9867 845.675 68.72 845.6L66.592 845C66.32 844.925 66.0453 844.832 65.768 844.72C65.496 844.603 65.2667 844.445 65.08 844.248C64.8933 844.051 64.8 843.792 64.8 843.472C64.8 843.141 64.904 842.853 65.112 842.608C65.3253 842.357 65.608 842.163 65.96 842.024C66.3173 841.885 66.7093 841.821 67.136 841.832C67.7973 841.837 68.3813 842.027 68.888 842.4C69.4 842.768 69.7173 843.277 69.84 843.928L71.632 843.624C71.3973 842.563 70.8853 841.739 70.096 841.152C69.3067 840.56 68.328 840.259 67.16 840.248C66.3867 840.243 65.688 840.368 65.064 840.624C64.44 840.88 63.944 841.253 63.576 841.744C63.2133 842.235 63.032 842.837 63.032 843.552C63.032 844.171 63.1627 844.672 63.424 845.056C63.6853 845.44 64.0107 845.739 64.4 845.952C64.7947 846.165 65.184 846.328 65.568 846.44L68.52 847.312C68.9467 847.44 69.2933 847.621 69.56 847.856C69.832 848.085 69.968 848.408 69.968 848.824C69.968 849.208 69.848 849.539 69.608 849.816C69.3733 850.088 69.0613 850.299 68.672 850.448C68.2827 850.592 67.856 850.664 67.392 850.664C66.6453 850.664 65.992 850.469 65.432 850.08C64.872 849.691 64.504 849.141 64.328 848.432L62.584 848.696C62.712 849.427 62.9893 850.059 63.416 850.592C63.8427 851.12 64.3893 851.528 65.056 851.816C65.7227 852.099 66.4693 852.24 67.296 852.24ZM76.9929 852.232C77.6169 852.232 78.1689 852.12 78.6489 851.896C79.1342 851.672 79.5342 851.363 79.8489 850.968V852H81.3369V843.36H79.6489V847.856C79.6489 848.539 79.5502 849.085 79.3529 849.496C79.1555 849.901 78.8889 850.195 78.5529 850.376C78.2222 850.557 77.8569 850.648 77.4569 850.648C76.9982 850.648 76.6249 850.555 76.3369 850.368C76.0489 850.181 75.8275 849.936 75.6729 849.632C75.5182 849.328 75.4115 849 75.3529 848.648C75.2995 848.291 75.2729 847.944 75.2729 847.608V843.36H73.5769V848.16C73.5769 848.427 73.6009 848.736 73.6489 849.088C73.6969 849.44 73.7875 849.8 73.9209 850.168C74.0542 850.536 74.2462 850.877 74.4969 851.192C74.7529 851.501 75.0835 851.752 75.4889 851.944C75.8942 852.136 76.3955 852.232 76.9929 852.232ZM83.8926 855.84H85.5726V851.392C85.8766 851.664 86.226 851.872 86.6206 852.016C87.0206 852.165 87.466 852.24 87.9566 852.24C88.762 852.24 89.4553 852.04 90.0366 851.64C90.6233 851.235 91.074 850.688 91.3886 850C91.7086 849.312 91.8686 848.536 91.8686 847.672C91.8686 846.803 91.7086 846.027 91.3886 845.344C91.0686 844.656 90.6126 844.115 90.0206 843.72C89.434 843.32 88.7353 843.12 87.9246 843.12C87.3913 843.12 86.9113 843.211 86.4846 843.392C86.058 843.568 85.69 843.816 85.3806 844.136V843.36H83.8926V855.84ZM87.7246 850.728C86.9033 850.728 86.306 850.443 85.9326 849.872C85.5646 849.301 85.3806 848.568 85.3806 847.672C85.3806 846.776 85.5646 846.045 85.9326 845.48C86.3006 844.915 86.8793 844.632 87.6686 844.632C88.2233 844.632 88.6793 844.768 89.0366 845.04C89.394 845.312 89.658 845.677 89.8286 846.136C90.0046 846.595 90.0926 847.107 90.0926 847.672C90.0926 848.243 90.0073 848.76 89.8366 849.224C89.666 849.683 89.4046 850.048 89.0526 850.32C88.706 850.592 88.2633 850.728 87.7246 850.728ZM97.787 852.24C98.6243 852.24 99.3843 852.029 100.067 851.608C100.75 851.181 101.259 850.581 101.595 849.808L99.955 849.288C99.5177 850.205 98.7683 850.664 97.707 850.664C96.9817 850.664 96.411 850.445 95.995 850.008C95.579 849.571 95.3363 848.952 95.267 848.152H101.707C101.766 847.117 101.643 846.224 101.339 845.472C101.035 844.72 100.574 844.141 99.955 843.736C99.3363 843.325 98.587 843.12 97.707 843.12C96.8643 843.12 96.1257 843.309 95.491 843.688C94.8563 844.067 94.3603 844.603 94.003 845.296C93.651 845.989 93.475 846.808 93.475 847.752C93.475 848.643 93.6537 849.427 94.011 850.104C94.3737 850.776 94.8777 851.301 95.523 851.68C96.1737 852.053 96.9283 852.24 97.787 852.24ZM97.771 844.6C99.0777 844.6 99.819 845.349 99.995 846.848H95.307C95.4137 846.117 95.6723 845.56 96.083 845.176C96.4937 844.792 97.0563 844.6 97.771 844.6ZM103.822 852H105.51V847.64C105.51 847.133 105.59 846.664 105.75 846.232C105.91 845.8 106.193 845.453 106.598 845.192C106.886 845.005 107.203 844.896 107.55 844.864C107.897 844.832 108.209 844.853 108.486 844.928V843.36C108.097 843.285 107.683 843.288 107.246 843.368C106.814 843.448 106.435 843.608 106.11 843.848C105.79 844.061 105.523 844.357 105.31 844.736V843.36H103.822V852ZM110.321 852H111.809V851.208C112.124 851.533 112.495 851.787 112.921 851.968C113.353 852.149 113.841 852.24 114.385 852.24C115.191 852.24 115.884 852.04 116.465 851.64C117.052 851.235 117.503 850.688 117.817 850C118.137 849.312 118.297 848.536 118.297 847.672C118.297 846.803 118.137 846.027 117.817 845.344C117.497 844.656 117.041 844.115 116.449 843.72C115.863 843.32 115.164 843.12 114.353 843.12C113.873 843.12 113.436 843.192 113.041 843.336C112.647 843.48 112.3 843.685 112.001 843.952V840.48H110.321V852ZM114.153 850.728C113.332 850.728 112.735 850.443 112.361 849.872C111.993 849.301 111.809 848.568 111.809 847.672C111.809 846.776 111.993 846.045 112.361 845.48C112.729 844.915 113.308 844.632 114.097 844.632C114.652 844.632 115.108 844.768 115.465 845.04C115.823 845.312 116.087 845.677 116.257 846.136C116.433 846.595 116.521 847.107 116.521 847.672C116.521 848.243 116.436 848.76 116.265 849.224C116.095 849.683 115.833 850.048 115.481 850.32C115.135 850.592 114.692 850.728 114.153 850.728ZM124.136 852.24C124.994 852.24 125.741 852.048 126.376 851.664C127.01 851.275 127.501 850.739 127.848 850.056C128.2 849.368 128.376 848.573 128.376 847.672C128.376 846.781 128.202 845.995 127.856 845.312C127.509 844.624 127.018 844.088 126.384 843.704C125.749 843.315 125 843.12 124.136 843.12C123.288 843.12 122.546 843.312 121.912 843.696C121.277 844.08 120.784 844.613 120.432 845.296C120.08 845.979 119.904 846.771 119.904 847.672C119.904 848.563 120.077 849.352 120.424 850.04C120.77 850.728 121.258 851.267 121.888 851.656C122.522 852.045 123.272 852.24 124.136 852.24ZM124.136 850.664C123.33 850.664 122.72 850.395 122.304 849.856C121.888 849.312 121.68 848.584 121.68 847.672C121.68 846.792 121.88 846.077 122.28 845.528C122.68 844.973 123.298 844.696 124.136 844.696C124.952 844.696 125.565 844.965 125.976 845.504C126.392 846.043 126.6 846.765 126.6 847.672C126.6 848.557 126.394 849.277 125.984 849.832C125.578 850.387 124.962 850.664 124.136 850.664ZM132.894 852.24C134.27 852.24 135.307 851.741 136.006 850.744V852H137.486V846.68C137.486 846.317 137.47 845.979 137.438 845.664C137.406 845.349 137.32 845.051 137.182 844.768C136.915 844.197 136.494 843.781 135.918 843.52C135.347 843.253 134.675 843.12 133.902 843.12C132.904 843.12 132.104 843.339 131.502 843.776C130.899 844.213 130.494 844.803 130.286 845.544L131.846 846.024C131.995 845.544 132.259 845.197 132.638 844.984C133.016 844.771 133.432 844.664 133.886 844.664C134.558 844.664 135.043 844.808 135.342 845.096C135.646 845.379 135.811 845.819 135.838 846.416C135.134 846.512 134.446 846.613 133.774 846.72C133.102 846.821 132.515 846.944 132.014 847.088C131.347 847.301 130.84 847.619 130.494 848.04C130.147 848.461 129.974 848.997 129.974 849.648C129.974 850.117 130.083 850.549 130.302 850.944C130.526 851.333 130.854 851.648 131.286 851.888C131.723 852.123 132.259 852.24 132.894 852.24ZM133.19 850.872C132.656 850.872 132.262 850.749 132.006 850.504C131.755 850.259 131.63 849.968 131.63 849.632C131.63 849.291 131.742 849.021 131.966 848.824C132.195 848.627 132.48 848.469 132.822 848.352C133.184 848.245 133.611 848.152 134.102 848.072C134.598 847.992 135.171 847.904 135.822 847.808C135.816 848.011 135.803 848.237 135.782 848.488C135.76 848.739 135.715 848.963 135.646 849.16C135.582 849.443 135.446 849.715 135.238 849.976C135.035 850.237 134.76 850.453 134.414 850.624C134.072 850.789 133.664 850.872 133.19 850.872ZM139.883 852H141.571V847.64C141.571 847.133 141.651 846.664 141.811 846.232C141.971 845.8 142.254 845.453 142.659 845.192C142.947 845.005 143.264 844.896 143.611 844.864C143.958 844.832 144.27 844.853 144.547 844.928V843.36C144.158 843.285 143.744 843.288 143.307 843.368C142.875 843.448 142.496 843.608 142.171 843.848C141.851 844.061 141.584 844.357 141.371 844.736V843.36H139.883V852ZM149.666 852.24C150.21 852.24 150.696 852.149 151.122 851.968C151.554 851.787 151.928 851.533 152.242 851.208V852H153.73V840.48H152.05V843.952C151.752 843.685 151.405 843.48 151.01 843.336C150.616 843.192 150.178 843.12 149.698 843.12C148.888 843.12 148.186 843.32 147.594 843.72C147.008 844.115 146.554 844.656 146.234 845.344C145.914 846.027 145.754 846.803 145.754 847.672C145.754 848.536 145.912 849.312 146.226 850C146.546 850.688 147 851.235 147.586 851.64C148.173 852.04 148.866 852.24 149.666 852.24ZM149.898 850.728C149.365 850.728 148.922 850.592 148.57 850.32C148.218 850.048 147.957 849.683 147.786 849.224C147.616 848.76 147.53 848.243 147.53 847.672C147.53 847.107 147.616 846.595 147.786 846.136C147.962 845.677 148.229 845.312 148.586 845.04C148.944 844.768 149.4 844.632 149.954 844.632C150.744 844.632 151.322 844.915 151.69 845.48C152.058 846.045 152.242 846.776 152.242 847.672C152.242 848.568 152.058 849.301 151.69 849.872C151.322 850.443 150.725 850.728 149.898 850.728Z" fill="white"/>
<path d="M224 786.167V797.833" stroke="white" stroke-width="1.5" stroke-linecap="round" stroke-linejoin="round"/>
<path d="M218.167 792H229.833" stroke="white" stroke-width="1.5" stroke-linecap="round" stroke-linejoin="round"/>
<defs>
<clipPath id="clip0_59_14900">
<rect width="20" height="20" fill="white" transform="translate(24 20)"/>
</clipPath>
</defs>
</svg>
